<svg xmlns="http://www.w3.org/2000/svg" width="32" height="32" viewBox="0 0 24 24"><!-- Icon from MingCute Icon by MingCute Design - https://github.com/Richard9394/MingCute/blob/main/LICENSE --><g fill="none"><path d="m12.594 23.258l-.012.002l-.071.035l-.02.004l-.014-.004l-.071-.036q-.016-.004-.024.006l-.004.01l-.017.428l.005.02l.01.013l.104.074l.015.004l.012-.004l.104-.074l.012-.016l.004-.017l-.017-.427q-.004-.016-.016-.018m.264-.113l-.014.002l-.184.093l-.01.01l-.003.011l.018.43l.005.012l.008.008l.201.092q.019.005.029-.008l.004-.014l-.034-.614q-.005-.019-.02-.022m-.715.002a.02.02 0 0 0-.027.006l-.006.014l-.034.614q.001.018.017.024l.015-.002l.201-.093l.01-.008l.003-.011l.018-.43l-.003-.012l-.01-.01z"/><path fill="#FCD08C" d="M19 3a2 2 0 0 1 2 2v14a2 2 0 0 1-2 2H5a2 2 0 0 1-2-2V5a2 2 0 0 1 2-2zm0 6H5v10h14zM8.5 15a1 1 0 1 1 0 2h-1a1 1 0 1 1 0-2zm4 0a1 1 0 0 1 .117 1.993L12.5 17h-1a1 1 0 0 1-.117-1.993L11.5 15zm-4-4a1 1 0 0 1 .117 1.993L8.5 13h-1a1 1 0 0 1-.117-1.993L7.5 11zm4 0a1 1 0 1 1 0 2h-1a1 1 0 1 1 0-2zm4 0a1 1 0 0 1 .117 1.993L16.5 13h-1a1 1 0 0 1-.117-1.993L15.5 11zM19 5H5v2h14z"/></g></svg>