<?xml version="1.0" standalone="no"?><!DOCTYPE svg PUBLIC "-//W3C//DTD SVG 1.1//EN" "http://www.w3.org/Graphics/SVG/1.1/DTD/svg11.dtd"><svg t="1760694446848" class="icon" viewBox="0 0 1024 1024" version="1.1" xmlns="http://www.w3.org/2000/svg" p-id="1889" xmlns:xlink="http://www.w3.org/1999/xlink" width="200" height="200"><path d="M96 192m64 0l704 0q64 0 64 64l0 576q0 64-64 64l-704 0q-64 0-64-64l0-576q0-64 64-64Z" fill="#FFD9D9" p-id="1890"></path><path d="M96 320h832v512a64 64 0 0 1-64 64H160a64 64 0 0 1-64-64z" fill="#FFC2C2" p-id="1891"></path><path d="M224 96m32 0l0 0q32 0 32 32l0 96q0 32-32 32l0 0q-32 0-32-32l0-96q0-32 32-32Z" fill="#FF8686" p-id="1892"></path><path d="M736 96m32 0l0 0q32 0 32 32l0 96q0 32-32 32l0 0q-32 0-32-32l0-96q0-32 32-32Z" fill="#FF8686" p-id="1893"></path><path d="M576 704m32 0l192 0q32 0 32 32l0 0q0 32-32 32l-192 0q-32 0-32-32l0 0q0-32 32-32Z" fill="#FF8686" p-id="1894"></path></svg>