<svg width="32" height="32" viewBox="0 0 32 32" fill="none" xmlns="http://www.w3.org/2000/svg">
<path d="M3.80951 9.90481H28.1905M6.85713 3.80957H25.1428C25.9511 3.80957 26.7263 4.13066 27.2978 4.7022C27.8694 5.27374 28.1905 6.04891 28.1905 6.85719V25.1429C28.1905 25.9512 27.8694 26.7264 27.2978 27.2979C26.7263 27.8694 25.9511 28.1905 25.1428 28.1905H6.85713C6.04885 28.1905 5.27368 27.8694 4.70214 27.2979C4.1306 26.7264 3.80951 25.9512 3.80951 25.1429V6.85719C3.80951 6.04891 4.1306 5.27374 4.70214 4.7022C5.27368 4.13066 6.04885 3.80957 6.85713 3.80957Z" stroke="#e2e2e2" stroke-width="1.52381" stroke-linecap="round" stroke-linejoin="round"/>
<path d="M15.9999 17.5239C16.8415 17.5239 17.5238 16.8417 17.5238 16.0001C17.5238 15.1586 16.8415 14.4763 15.9999 14.4763C15.1584 14.4763 14.4761 15.1586 14.4761 16.0001C14.4761 16.8417 15.1584 17.5239 15.9999 17.5239Z" fill="#e2e2e2"/>
<path d="M9.90473 17.5239C10.7463 17.5239 11.4285 16.8417 11.4285 16.0001C11.4285 15.1586 10.7463 14.4763 9.90473 14.4763C9.06315 14.4763 8.38092 15.1586 8.38092 16.0001C8.38092 16.8417 9.06315 17.5239 9.90473 17.5239Z" fill="#e2e2e2"/>
<path d="M22.0952 17.5239C22.9368 17.5239 23.619 16.8417 23.619 16.0001C23.619 15.1586 22.9368 14.4763 22.0952 14.4763C21.2536 14.4763 20.5714 15.1586 20.5714 16.0001C20.5714 16.8417 21.2536 17.5239 22.0952 17.5239Z" fill="#e2e2e2"/>
</svg>
