<svg xmlns="http://www.w3.org/2000/svg" width="32" height="32" viewBox="0 0 24 24"><!-- Icon from MingCute Icon by MingCute Design - https://github.com/Richard9394/MingCute/blob/main/LICENSE --><g fill="none" fill-rule="evenodd"><path d="m12.593 23.258l-.011.002l-.071.035l-.02.004l-.014-.004l-.071-.035q-.016-.005-.024.005l-.004.01l-.017.428l.005.02l.01.013l.104.074l.015.004l.012-.004l.104-.074l.012-.016l.004-.017l-.017-.427q-.004-.016-.017-.018m.265-.113l-.013.002l-.185.093l-.01.01l-.003.011l.018.43l.005.012l.008.007l.201.093q.019.005.029-.008l.004-.014l-.034-.614q-.005-.018-.02-.022m-.715.002a.02.02 0 0 0-.027.006l-.006.014l-.034.614q.001.018.017.024l.015-.002l.201-.093l.01-.008l.004-.011l.017-.43l-.003-.012l-.01-.01z"/><path fill="currentColor" fill-rule="nonzero" d="M19 3a2 2 0 0 1 2 2v11a2 2 0 0 1-2 2h-4v1h1a1 1 0 1 1 0 2H8a1 1 0 1 1 0-2h1v-1H5a2 2 0 0 1-2-2V5a2 2 0 0 1 2-2Zm-6 15h-2v1h2zm6-13H5v11h14z"/></g></svg>