<svg xmlns="http://www.w3.org/2000/svg" width="32" height="32" viewBox="0 0 24 24"><!-- Icon from MingCute Icon by MingCute Design - https://github.com/Richard9394/MingCute/blob/main/LICENSE --><g fill="none" fill-rule="evenodd"><path d="m12.593 23.258l-.011.002l-.071.035l-.02.004l-.014-.004l-.071-.035q-.016-.005-.024.005l-.004.01l-.017.428l.005.02l.01.013l.104.074l.015.004l.012-.004l.104-.074l.012-.016l.004-.017l-.017-.427q-.004-.016-.017-.018m.265-.113l-.013.002l-.185.093l-.01.01l-.003.011l.018.43l.005.012l.008.007l.201.093q.019.005.029-.008l.004-.014l-.034-.614q-.005-.018-.02-.022m-.715.002a.02.02 0 0 0-.027.006l-.006.014l-.034.614q.001.018.017.024l.015-.002l.201-.093l.01-.008l.004-.011l.017-.43l-.003-.012l-.01-.01z"/><path fill="currentColor" d="M12.477 4.546a1.01 1.01 0 0 1 1.097-1.409A9 9 0 0 1 12 21c-4.434 0-8.118-3.206-8.863-7.426a1.01 1.01 0 0 1 1.409-1.097a6 6 0 0 0 7.931-7.931m2.404 1.072a8 8 0 0 1-9.263 9.263A7.002 7.002 0 0 0 19 12.001a7 7 0 0 0-4.12-6.383ZM5.565 7.716l.064.14a3.26 3.26 0 0 0 1.237 1.363l.1.059a.068.068 0 0 1 0 .118l-.1.058a3.26 3.26 0 0 0-1.237 1.364l-.064.14a.071.071 0 0 1-.13 0l-.064-.14a3.26 3.26 0 0 0-1.237-1.364l-.1-.058a.068.068 0 0 1 0-.118l.1-.059A3.26 3.26 0 0 0 5.37 7.855l.064-.14a.071.071 0 0 1 .13 0Zm2.832-4.859c.04-.09.166-.09.206 0l.102.222a5.2 5.2 0 0 0 1.97 2.172l.157.092a.108.108 0 0 1 0 .189l-.158.092a5.2 5.2 0 0 0-2.07 2.394a.113.113 0 0 1-.207 0l-.102-.222a5.2 5.2 0 0 0-1.97-2.172l-.158-.092a.108.108 0 0 1 0-.189l.158-.092a5.2 5.2 0 0 0 1.97-2.172z"/></g></svg>