<svg xmlns="http://www.w3.org/2000/svg" viewBox="0 0 285.00715 80.2837"><defs><style>.cls-1{fill:#9a0000;}.cls-2{fill:#231814;}.cls-3{fill:#810000;fill-rule:evenodd;}</style></defs><g id="图层_2" data-name="图层 2"><g id="Layer_1" data-name="Layer 1"><path class="cls-1" d="M169.02918,2.68038a7.84945,7.84945,0,0,1,4.59207,1.42513c1.02926.71256,2.2621.96139,3.28,1.7305S179.039,7.10279,179.514,8.25646a3.12171,3.12171,0,0,1-1.19891,3.3366,5.36123,5.36123,0,0,1-3.08777.55421,10.17951,10.17951,0,0,1-2.002,1.9341,8.32457,8.32457,0,0,1-2.2621.93877l-.46374-.38455v-.656c1.02926-1.04057.87091-2.61273.66732-3.92475a9.33129,9.33129,0,0,0-1.674-3.39315,7.05786,7.05786,0,0,0-1.131-2.658l.76911-1.2894M273.71925,3.721h.9614c.70124.68994,1.67395,1.36857,1.62871,2.477.10179,2.75977-2.63535,4.5242-2.82763,7.25,1.04057.44111,2.0472-.15834,2.97467-.58814,1.25547-.59946,2.658-.73519,3.95868-1.22154a6.006,6.006,0,0,1,1.54954-.328c.803.837,2.01327.5429,3.04253.81435v2.61273a14.06016,14.06016,0,0,0-.95008,1.8323c-1.13105,2.54487-3.14432,4.52421-4.8522,6.62795-.656.87092-2.06983,1.13106-2.26211,2.26211a9.97578,9.97578,0,0,1,3.99261.509,7.15953,7.15953,0,0,1-.35062,3.314,8.16625,8.16625,0,0,1-2.94074,3.20087c-.7465.56553-1.23284,1.48168-2.18292,1.75313a10.74509,10.74509,0,0,0-2.82763,1.19892,10.45151,10.45151,0,0,1-2.986,1.40251,3.39333,3.39333,0,0,1-.16965-1.13106,8.32417,8.32417,0,0,1,2.0472-1.9341c.837-.656,1.32333-1.62872,2.13768-2.31866,1.06319-.82566,1.45905-2.18292,2.33-3.17825h-.56553a14.56827,14.56827,0,0,0-2.63535,1.74181,18.32306,18.32306,0,0,1-1.77576,1.73051,39.82355,39.82355,0,0,1-8.34716,4.99924c-1.312.5316-2.5901,1.13105-3.936,1.54954a13.1207,13.1207,0,0,1-4.60339.27145v-.95007c2.40915-1.42512,4.69386-3.03121,7.04645-4.52421.88221-.62208,1.99064-.7691,2.90681-1.33463,1.70788-1.06319,3.48363-2.002,5.282-2.91811,1.56086-.66732,3.05383-1.5043,4.59206-2.20555l.06786-.52029c-1.60609-.181-2.81632,1.13105-4.34323,1.312a4.332,4.332,0,0,1,.66732-2.658,4.36589,4.36589,0,0,0-2.85025-1.43641c-.75781,1.52693-2.35259,2.2621-3.642,3.20088l-.70124-.07918V25.39188a13.87863,13.87863,0,0,0,2.42044-3.47233,2.55623,2.55623,0,0,1-.91615-1.6174c.82567-.16966,1.69658-.12442,2.49963-.36194a5.65523,5.65523,0,0,0,1.97934-2.66928,12.79145,12.79145,0,0,1-2.70321.31669c-.05655-1.13105,1.13105-1.69657,1.33463-2.74845h-1.62871c-.90485-.57684-1.91148-1.6174-1.41381-2.78238a16.43276,16.43276,0,0,1,2.04719.41849,23.11945,23.11945,0,0,0,2.49963-.95008,4.43381,4.43381,0,0,0,1.77576-.656,7.57811,7.57811,0,0,0,2.10374-3.936,30.73314,30.73314,0,0,0,.475-3.24612m-.24883,11.729c-1.59479,1.59478-3.29136,3.28-3.8795,5.53083.45241.45243.78043,1.312,1.53823,1.22154.59946-.78043.41848-1.86623.88222-2.72584h1.04056c.39588,1.37989.656,2.7937.93878,4.19621.73517-.12442.92747-.89352,1.27809-1.42512.7578-1.28939,2.09245-2.09244,2.91811-3.32529a6.78612,6.78612,0,0,0,.78043-2.13768c-1.86622-.328-3.63068-1.0632-5.49691-1.35726m-59.22182-5.1689a6.44671,6.44671,0,0,1,.8596-.48636c.78043.10179,1.54955.3167,2.35259.37325s1.27808.70126,1.84361,1.13105c.91615.84829,2.3752,1.02926,2.986,2.2621a3.29138,3.29138,0,0,1-.44111,3.66461c0,3.39315-.10179,6.78631,0,10.17946a10.53013,10.53013,0,0,0,2.952-1.59478c1.53823-.90485,2.20554-2.69191,3.66461-3.68723a4.32056,4.32056,0,0,1,2.986-.45242,1.043,1.043,0,0,1,.71257,1.61739A9.45544,9.45544,0,0,1,229.95892,25.98c-1.26677,1.02926-2.63535,1.92278-3.94737,2.90681-.72388.5429-1.2894,1.27809-2.0359,1.79836a20.36188,20.36188,0,0,0-2.05851,1.44775,2.37522,2.37522,0,0,0-.4298,1.44774,29.1588,29.1588,0,0,1-.74649,3.68722,16.4688,16.4688,0,0,1-1.22154,3.8795c-.72387,1.39118-2.13769,2.18292-3.30267,3.16694a23.67294,23.67294,0,0,1-6.7863,4.23014,17.74681,17.74681,0,0,1-5.99458,1.05187,4.78426,4.78426,0,0,1,1.23285-2.05852,5.30441,5.30441,0,0,1,1.80967-1.01794,10.99387,10.99387,0,0,0,6.02851-4.17358,10.779,10.779,0,0,0,2.477-6.00588,10.68851,10.68851,0,0,0-4.09441,1.19891c-.8596.37325-1.90016.45241-2.54486,1.18761a8.47142,8.47142,0,0,1-2.2621,1.75313c-2.18293,1.13105-4.07178,2.97467-6.58272,3.39315a6.59416,6.59416,0,0,1-2.57879,0,3.95848,3.95848,0,0,1-1.131-1.68527,11.20873,11.20873,0,0,1-.15835-5.37249,8.56177,8.56177,0,0,1,1.66265,1.77576,5.76828,5.76828,0,0,0,2.08113-.48635,14.03586,14.03586,0,0,1,2.17161-.48634c2.11507-.7578,3.75509-2.54486,5.98326-3.05383a45.672,45.672,0,0,0,4.78435-1.88886,15.48385,15.48385,0,0,0,3.56281-1.65134c.837-1.02926.36194-2.45438.5316-3.66461A29.23818,29.23818,0,0,0,216.63513,22.7c0-1.66265.16965-3.39316-.54291-4.97663a28.07264,28.07264,0,0,1-1.95672-4.79565,11.50317,11.50317,0,0,1-.07918-2.64666M103.47348,11.4121c-.19227-.63338.46373-.99532.81436-1.39119,1.13105.44111,1.7192,1.57216,2.79369,2.08113a25.52753,25.52753,0,0,1,5.96064,3.80033,3.461,3.461,0,0,1,1.30071,2.2621,15.53,15.53,0,0,0,.09049,2.71452c.24883,1.54954,0,3.11039.2149,4.65993a30.88916,30.88916,0,0,1,.06786,4.0944v4.8522c0,1.88885-.4298,3.74377-.509,5.65525a14.0369,14.0369,0,0,1-.38456,2.99728,29.40683,29.40683,0,0,1-1.47036,5.91539,5.51961,5.51961,0,0,1-1.30071,2.2621,2.77122,2.77122,0,0,1-1.56085.41849,3.85688,3.85688,0,0,1-.58815-1.493c-.1131-1.57216.07917-3.15562,0-4.72778-.89353.57683-1.58347,1.39118-2.44307,2.002a26.64572,26.64572,0,0,1-2.05853,1.83233,11.44684,11.44684,0,0,0-2.952,2.0359,14.92876,14.92876,0,0,1-1.65133,1.7305c-.97271,0-2.20555.16965-2.805-.79173-.99532-1.70788-.5429-3.7664-.63339-5.65525a11.55957,11.55957,0,0,0,2.2621-2.49963A26.52261,26.52261,0,0,0,100.578,38.693c.2149-.68994.59946-1.312.803-2.002.26014-1.25547-.328-2.46568-.38456-3.69854s-.91615-2.01327-1.42513-2.986c.36194-.24884.66733-.72388,1.13106-.59946.72387.12442,1.26677.70125,1.95671.90484s1.24416,0,1.83231.21491a15.72553,15.72553,0,0,1,1.35726.90484c.509.23753,1.0745.23753,1.58347.44111a13.8112,13.8112,0,0,1,1.48168.9614,31.78394,31.78394,0,0,0,.22621-3.73247c0-1.88885.41849-3.7664.33931-5.65526a17.49746,17.49746,0,0,0-.63339-4.67123,12.72414,12.72414,0,0,0-2.12637-2.72584c-.62208-.7578-.99533-1.68526-1.674-2.38652a4.52419,4.52419,0,0,1-1.50429-2.2621m4.94269,23.639a3.033,3.033,0,0,1-3.15564,2.36389c-.24883.27146-.509.5429-.7578.82566-.76912.78043-.984,1.91148-1.69658,2.73714-1.19891,1.47037-2.2621,3.06516-3.39315,4.5242a5.22526,5.22526,0,0,0-.5429,1.26678,3.54035,3.54035,0,0,0,1.70788.2149,8.777,8.777,0,0,0,3.03122-1.7192c.84829-.59946,1.95672-.64471,2.7937-1.25547s1.64-1.13105,2.46569-1.62872c0-2.477.05655-4.94268,0-7.41969h-.48636M251.8108,15.94759a7.45365,7.45365,0,0,1,.19227-2.12637c1.24417.06786,1.95672,1.13105,2.87286,1.84361,1.19892.96139,2.82763,1.23284,3.92475,2.34128a15.49526,15.49526,0,0,1,2.2621,3.15563,8.76556,8.76556,0,0,1,1.40251,4.5242,10.17929,10.17929,0,0,1-2.2621,2.38652,3.39285,3.39285,0,0,1-1.493.31669c-.59946-2.06982-.75781-4.25274-1.62872-6.23209-.475-1.13105-1.57216-1.76444-2.2621-2.73714a17.373,17.373,0,0,0-3.08777-3.47233m-126.51934-.07917h.33931c.84829.82567,1.66265,1.70789,2.53356,2.51094a8.8562,8.8562,0,0,1,2.31865,3.84557,36.01332,36.01332,0,0,1,1.13105,5.02187,4.94255,4.94255,0,0,0,.58815,1.45905h.90484a5.65515,5.65515,0,0,1,1.493-1.47037,14.40982,14.40982,0,0,0,1.674-1.06319V22.994c.41849-.22621.82567-.656,1.34595-.509.36193.328.35062.87091.45242,1.312,1.04056,1.32333,2.7937,1.58346,4.25275,2.2621a15.06608,15.06608,0,0,1-.29407,2.86156,6.48072,6.48072,0,0,1-1.131,2.1264,7.09167,7.09167,0,0,1-3.57412,1.83229,13.98,13.98,0,0,1-2.91811.20359,1.40249,1.40249,0,0,0-1.21022.82566,11.18616,11.18616,0,0,1,.10179,3.63068c-1.13105.88222-2.43176,1.79836-2.79369,3.26873,2.39782.84829,4.71648-.5429,6.96727-1.13105a14.34122,14.34122,0,0,0,2.57879-.6447,13.47068,13.47068,0,0,1,3.642-.92747c.19227.475.53159.99533.31669,1.52692s-.63339,1.32333-.93877,2.002a3.18953,3.18953,0,0,1-1.52692,1.37988,22.04519,22.04519,0,0,1-4.78435,1.60609,7.9176,7.9176,0,0,1-2.952.33932,3.92468,3.92468,0,0,1-2.06982,1.346,6.447,6.447,0,0,1-4.16227-.63338,3.70988,3.70988,0,0,1-1.37988-1.65135,32.37093,32.37093,0,0,1-1.90017-4.7391c-.37324-1.13105-.20359-2.2621-.55421-3.39315-.54291-1.968-.95009-3.97-1.40251-5.96065a5.08991,5.08991,0,0,1,0-2.02457c.56553-2.88418,1.346-5.71181,1.968-8.58467A11.94385,11.94385,0,0,1,125.3593,15.925m52.91057.68994a14.24,14.24,0,0,1,3.789-.3167v1.13106a12.82689,12.82689,0,0,1-1.39118,1.37988c-.63339.26014-1.36857.16966-1.968.55421a29.5214,29.5214,0,0,0-2.9068,2.13769c-1.60609,1.2894-2.68059,3.133-4.27537,4.43372a6.07361,6.07361,0,0,1-3.91344,1.13105,8.30168,8.30168,0,0,1-3.30266-.9614A4.15092,4.15092,0,0,1,162.10716,24.34a1.69657,1.69657,0,0,1,.82567-2.0359c2.805-1.13105,5.65525-2.35259,8.42632-3.39315a10.4848,10.4848,0,0,1,2.46569-.803c1.54955-.24883,2.91812-1.13105,4.445-1.42512m73.37128,9.16152a2.31856,2.31856,0,0,1,1.56085.46373,10.17945,10.17945,0,0,1,2.69191,3.68722,4.69387,4.69387,0,0,1-1.48168,4.10572h-1.25546c-.46374-.984-1.42512-1.8323-1.2781-3.0199.11312-1.74181-.35062-3.461-.23752-5.20284M172.6033,29.89347a5.08972,5.08972,0,0,1,3.5515-1.92278,11.9098,11.9098,0,0,1,4.5242.5429c.44111.13572.656.59945.92746.93877a6.6394,6.6394,0,0,1-2.149,1.79837c-1.02926.84829-1.90016,1.90016-2.88418,2.805-1.02926.68994-1.71919,1.74181-2.6919,2.48831a3.50639,3.50639,0,0,0-.91615,1.131,6.19819,6.19819,0,0,1,2.2621-.73518h2.805c.147.46374.59946.9614.30538,1.44775a6.50371,6.50371,0,0,1-2.66928,2.36389,16.72873,16.72873,0,0,1-3.25742,1.74181c-.38455.181-.92746.24883-1.06319.72387a4.09438,4.09438,0,0,0-.20359,2.46568c.27145.78043.71256,1.48168.984,2.26211a28.42312,28.42312,0,0,1,1.06319,7.56673,2.49968,2.49968,0,0,1-.15835,1.25547,14.39562,14.39562,0,0,1-1.56085.05655,7.76943,7.76943,0,0,1-.71255-.78043c-.44111-.58815,0-1.5043-.69-1.99064a9.65951,9.65951,0,0,0-2.5901-1.19891,2.34127,2.34127,0,0,1,.63338-1.65134c.54291-.06786,1.22154-.16965,1.42513-.78043a4.60343,4.60343,0,0,0-.48635-3.39315,12.27166,12.27166,0,0,0-2.72584,2.16031c-.6447.475-.89353,1.3007-1.5043,1.80969a16.68274,16.68274,0,0,0-1.88886,1.74182c-1.131,1.2781-2.42045,2.34129-3.50626,3.63069a3.28014,3.28014,0,0,1-2.42045-.61076,5.47433,5.47433,0,0,1-1.78706-4.85221,5.57676,5.57676,0,0,1,1.131-.40717,10.17835,10.17835,0,0,1,1.74182.26013,3.39316,3.39316,0,0,1,1.41382-1.00663c.79173-.29407,1.34595-.984,2.13768-1.3007,1.968-.76911,3.49494-2.26211,5.31594-3.314.91615-.5203,2.2621-1.06319,2.16031-2.33l-.67863-.13572-.40718-.40718c.1131-1.5156,1.131-2.72583,1.33464-4.24144a5.90425,5.90425,0,0,0-2.3752.475,17.39618,17.39618,0,0,1-.147,3.39316,21.637,21.637,0,0,1-3.0086,4.37716h-.39587c-.56553-.57683-1.312-1.13105-1.5043-1.91148s-1.01795-1.78706-1.04057-2.82763a17.47487,17.47487,0,0,1,.59946-5.463,16.75139,16.75139,0,0,0,.15835-3.608,2.17943,2.17943,0,0,1,1.48167.26014,9.83938,9.83938,0,0,1,1.43644,1.58344,12.26043,12.26043,0,0,0,3.133-1.60609,13.05245,13.05245,0,0,0,2.83894-2.19424,2.7032,2.7032,0,0,1,2.01326-.61076m97.90376,8.91269c1.30071-.75781,2.81633-.12442,4.20751-.06786a1.43642,1.43642,0,0,1,1.2894,1.39118,3.32528,3.32528,0,0,1-.984,2.45438,2.45431,2.45431,0,0,1-1.67395.97271,19.72542,19.72542,0,0,0-3.81163.63338,3.74374,3.74374,0,0,0,.27146,1.93411,8.38139,8.38139,0,0,1,.90484,2.35259c.16965.91614.67864,1.87754.26014,2.78239a16.10644,16.10644,0,0,1-1.30071,2.52224c-.58815.73517-1.62871.29406-2.40914.52029-.64471.41848-1.131,1.1876-1.9341,1.24416-1.2781.15835-2.17162-.99533-3.39316-1.21023-.49766-.16965-1.13105-.12442-1.44774-.63339a1.674,1.674,0,0,1-.328-.9727c.39588-.37325.99533-.22621,1.48168-.24884a6.98959,6.98959,0,0,0,2.73714-.29406c1.05187-.328,2.33-.58815,2.86155-1.66265.38456-.64471-.07918-1.35726-.09048-2.03589-.12442-.91615.30539-1.91148-.15835-2.77107-.29406-.55423-.99533-.38456-1.5043-.44111a3.66472,3.66472,0,0,1-1.62871,1.13105,14.63665,14.63665,0,0,0-1.85493.26013,18.24437,18.24437,0,0,0-4.65992,2.83894,17.57689,17.57689,0,0,1-5.03317,2.64665,6.53787,6.53787,0,0,1-1.131-.48634c-.41849-.63339-.59946-1.39119-1.06319-2.002a4.52414,4.52414,0,0,1-.84829-2.52224,6.30025,6.30025,0,0,1,1.06319-1.13105c.656-.19227,1.40251,0,2.002-.39587a6.71823,6.71823,0,0,1,1.95672-1.01794,11.24267,11.24267,0,0,0,2.88418-1.13105,50.40067,50.40067,0,0,1,6.03981-2.52224,19.52094,19.52094,0,0,1,3.70984-1.22154,13.3349,13.3349,0,0,0,3.57413-.81436m-42.74242.24884a3.6194,3.6194,0,0,1,1.74181.26013,23.65007,23.65007,0,0,1,2.37521,2.02458,11.38969,11.38969,0,0,1,3.5628,3.32529,3.92481,3.92481,0,0,1,.328,2.10376c-1.19891,1.01793-2.54486,2.18291-4.23014,2.08112a2.89537,2.89537,0,0,1-1.85492-.57683,3.87941,3.87941,0,0,0-.26014-2.2621,23.18843,23.18843,0,0,1-1.27809-3.32529,8.39221,8.39221,0,0,1-.38455-3.59673m-49.56264,2.23946a6.98986,6.98986,0,0,1,3.39315.36194c1.45906.62208,2.2621,2.0472,3.32529,3.15562.8596.90485.6447,2.26211.4298,3.39316-.12442,1.32332-1.48167,2.09245-2.658,2.37521a3.39318,3.39318,0,0,1-2.42045-1.66265c-.64469-1.131-1.87754-1.821-2.18292-3.14432A10.75608,10.75608,0,0,1,178.14545,41.43019Z"/><path class="cls-2" d="M154.49517,67.68188a6.28864,6.28864,0,0,1,6.46961-2.56749c.656.12442,1.24416.48635,1.91148.58815a8.0959,8.0959,0,0,0,.99532-.48634,9.35374,9.35374,0,0,1,.3167,3.1217,3.31407,3.31407,0,0,1-.23752,1.52692c-.58815,0-.67863-.64471-.88222-1.07449a4.73907,4.73907,0,0,0-1.5156-2.37522,3.39319,3.39319,0,0,0-4.45635.37325,5.76835,5.76835,0,0,0-1.58347,3.58543,8.8562,8.8562,0,0,0,.68994,4.92008,4.151,4.151,0,0,0,3.39315,2.31866,4.445,4.445,0,0,0,2.61273-.656,6.39049,6.39049,0,0,0-.10179-3.39315c-.46374-.49766-1.24416-.45241-1.86624-.59945v-.5316a34.5868,34.5868,0,0,1,5.51953,0v.475c-.48636.20358-1.131.26014-1.47037.68994-.35063,1.18761,0,2.45438-.20359,3.67592a8.743,8.743,0,0,1-2.91812,1.04056,6.57142,6.57142,0,0,1-6.07374-1.58346,7.47623,7.47623,0,0,1-.62208-9.04841m16.536-2.40914c1.76444-.06786,3.51757.09048,5.282,0a4.384,4.384,0,0,0,.12442.55422c-.52029.16965-1.05188.328-1.58348.475a32.61866,32.61866,0,0,0-.147,4.93138,23.40152,23.40152,0,0,0,.12442,3.9813,2.72583,2.72583,0,0,0,2.20556,2.149,3.83428,3.83428,0,0,0,3.52888-.984,5.65531,5.65531,0,0,0,.78043-3.58543,28.34489,28.34489,0,0,0-.29408-5.791c-.20359-.87091-1.26678-.90484-1.968-1.13105a3.33542,3.33542,0,0,1,.16966-.5429h3.94736a3.89068,3.89068,0,0,1,1.32333.30539c-.73519.48635-2.02458.55422-2.16031,1.60609-.475,2.92942,0,5.94932-.56553,8.86744a4.01525,4.01525,0,0,1-2.73714,2.19424,5.81358,5.81358,0,0,1-4.72779-.67864,3.461,3.461,0,0,1-1.53823-3.0199V67.21817c.10179-.984-1.13105-1.13105-1.77575-1.41382V65.318m74.64935.63338a4.52427,4.52427,0,0,1,3.314-.82566,14.50363,14.50363,0,0,1,2.03589.61076,6.8763,6.8763,0,0,0,1.131-.46373,19.13725,19.13725,0,0,1,.15835,3.68722c0,.38455-.28276.61076-.49767.87091-.57683-1.13105-.80305-2.49963-1.80968-3.39315a2.805,2.805,0,0,0-2.44308-.52029,1.99065,1.99065,0,0,0-1.26677,2.6919c.45241,1.131,1.69658,1.54954,2.72584,1.968a6.51484,6.51484,0,0,1,3.39315,2.17161,3.83429,3.83429,0,0,1-.38455,4.19621,4.7279,4.7279,0,0,1-3.39316,1.57216,7.15948,7.15948,0,0,1-3.16694-.88222,8.78822,8.78822,0,0,1-1.23284.68994,29.66617,29.66617,0,0,1-.15835-4.36585l.55422-.24884A8.42644,8.42644,0,0,0,246.48354,76.9a3.09907,3.09907,0,0,0,3.80033.29406,2.49963,2.49963,0,0,0-.29407-3.80033c-1.37988-.93877-3.16694-1.13105-4.445-2.17161a3.51763,3.51763,0,0,1,0-5.30464M138.55867,65.318h3.69854c1.85492,2.54487,3.70984,5.08973,5.57608,7.612a9.68108,9.68108,0,0,0,1.51561,1.80969c.1131-1.80969,0-3.61936.06786-5.42905a4.59205,4.59205,0,0,0-.59946-2.82762,15.835,15.835,0,0,0-1.62871-.66732,2.14838,2.14838,0,0,1,.147-.42981,34.32674,34.32674,0,0,1,4.94269,0,3.821,3.821,0,0,0,.10179.46374,8.04194,8.04194,0,0,0-1.6174.64471c-.44111.4298-.37325,1.13105-.40718,1.66264v7.58936a5.0333,5.0333,0,0,1-.39587,2.82763,9.286,9.286,0,0,1-2.06982-2.38652c-1.52692-2.0472-3.03122-4.117-4.5242-6.16422a10.1124,10.1124,0,0,0-1.57216-1.95672c-.11311,2.17162,0,4.34324,0,6.51485a4.02652,4.02652,0,0,0,.39586,2.2621,4.694,4.694,0,0,0,1.80968.76911v.58815h-5.135a2.9287,2.9287,0,0,0-.15834-.509c.70125-.328,1.86623-.38455,1.968-1.35726a40.06321,40.06321,0,0,0,.181-5.8249c0-1.13105.21489-2.477-.40718-3.5402a5.20293,5.20293,0,0,0-1.94541-1.13105,1.10276,1.10276,0,0,1,.06786-.46373m46.12425,0c1.27809-.07918,2.55618,0,3.83427,0,2.42044,3.20087,4.72779,6.48091,7.14824,9.68179.06786-1.95671,0-3.92475,0-5.88146a4.43375,4.43375,0,0,0-.39587-2.45438c-.475-.67864-1.80968-.35062-1.87755-1.33463a42.39313,42.39313,0,0,1,5.08973.07918l.23752.23753c-.52028.36194-1.131.509-1.70789.84829s-.37325,1.13105-.41849,1.66264q0,3.77769,0,7.56674a4.99922,4.99922,0,0,1-.40718,2.85025,6.28851,6.28851,0,0,1-1.23284-1.27809c-2.16031-3.04253-4.5242-5.972-6.58272-9.04841l-.33931-.09049V75.1921a2.31862,2.31862,0,0,0,.48635,1.74181,5.90389,5.90389,0,0,0,1.8323.74649v.509c-1.76443.05656-3.54018,0-5.30463,0l-.13573-.52029a5.77967,5.77967,0,0,0,1.69658-.72387,2.69185,2.69185,0,0,0,.45242-1.77576V68.93737a3.47233,3.47233,0,0,0-.41849-1.99065c-.52028-.74649-1.77575-.61075-2.0359-1.58346m14.45483,0h5.8136l.12442.49767a13.7632,13.7632,0,0,0-1.76444.53159c-.38455.48634-.2149,1.18761-.26014,1.77576v7.78163a1.35584,1.35584,0,0,0,.33932,1.13106,5.88146,5.88146,0,0,0,1.62871.54289v.55423h-5.82491v-.55428a4.37722,4.37722,0,0,0,1.66264-.49766c.33932-.36195.24884-.91615.29408-1.37989V67.82891c0-.42981,0-1.00664-.37325-1.2894a4.96525,4.96525,0,0,0-1.5043-.475,4.45454,4.45454,0,0,0-.09048-.67864m6.413,0h5.15759a1.99224,1.99224,0,0,1-.09049.72388l-1.459.181a9.726,9.726,0,0,0,.44111,1.68527c.96139,2.43175,1.821,4.90876,2.77107,7.34053a11.0944,11.0944,0,0,0,.63338-1.13105c.80305-2.08113,1.60609-4.16226,2.35259-6.25471.11311-.475.39587-1.131-.12441-1.47037a6.02821,6.02821,0,0,0-1.48168-.42981v-.64471h4.75041a4.69116,4.69116,0,0,1-.1131.656c-.49767.20358-1.131.28276-1.43643.7691a15.08768,15.08768,0,0,0-1.131,2.5901q-1.62871,3.936-3.133,7.91736c-.2149.49766-.37325,1.27809-1.131,1.13105a9.24083,9.24083,0,0,1-.91615-2.2621c-.72387-1.968-1.5156-3.91345-2.2621-5.88146a34.29261,34.29261,0,0,0-1.25547-3.23481c-.33932-.67864-1.13105-.90484-1.76443-1.22154a2.62487,2.62487,0,0,1,.147-.509m13.14281,0c3.39316-.07918,6.69583,0,10.055,0v3.167h-.5429c-.509-.88222-.984-2.0472-2.10375-2.2621a14.39908,14.39908,0,0,0-3.1217,0l-.24883.19227c-.11311,1.54954,0,3.11039,0,4.65993a3.17828,3.17828,0,0,0,2.805-.37325c.41849-.509.58815-1.18761.99533-1.70788.41849.23753.30539.7578.33932,1.13105v4.02654h-.58815c-.26014-.71257-.35062-1.65134-1.13105-2.0359a8.31273,8.31273,0,0,0-2.43175-.12441c0,1.5156-.06786,3.05383,0,4.5242a.97928.97928,0,0,0,1.06319.88222,14.86276,14.86276,0,0,0,3.32529-.10179c1.41381-.5316,1.19891-2.56749,2.56749-3.133a18.31072,18.31072,0,0,1-.15835,4.01524h-8.65254a9.049,9.049,0,0,1-1.92278-.07919,3.83471,3.83471,0,0,1-.20359-.44111,6.23192,6.23192,0,0,0,1.6174-.49766c.4298-.41848.36194-1.13105.39587-1.62872v-7.578a1.86127,1.86127,0,0,0-.46374-1.54954c-.46373-.36193-1.41381-.29406-1.57216-1.06319m12.44156,0h5.87014a4.79567,4.79567,0,0,1,2.7937.64471,3.133,3.133,0,0,1-.181,5.16891c-.49767.30539-1.02926.57683-1.54954.85959.78043,1.13105,1.60609,2.13769,2.38652,3.2235a10.655,10.655,0,0,0,1.312,1.6174,4.72782,4.72782,0,0,0,1.78707.803v.5429H239.98c-1.00663-1.74181-2.2621-3.39315-3.39315-4.98794a2.73717,2.73717,0,0,0-.7465-.78042,5.65471,5.65471,0,0,0-1.13105,0,34.27087,34.27087,0,0,0,.12442,4.70517,15.14214,15.14214,0,0,0,1.87755.7578,5.97173,5.97173,0,0,1-2.86156.30539,7.26129,7.26129,0,0,1-3.04253-.28276c.71257-.42981,2.06983-.46374,1.95671-1.57216V68.00986a3.11028,3.11028,0,0,0-.20358-1.44774,5.33853,5.33853,0,0,0-1.53823-.66732,2.77711,2.77711,0,0,1,.11312-.53159m3.608.95008c-.13572,1.26677,0,2.55617-.05656,3.83426a3.39311,3.39311,0,0,0,.13573,1.40251,3.936,3.936,0,0,0,2.59009-.33932,2.96335,2.96335,0,0,0,.95008-4.04916,3.29132,3.29132,0,0,0-3.61936-.84829m26.01417-.91615c3.74378-.06786,7.49888,0,11.254,0v3.65329c-.97271-.39588-1.05187-1.58347-1.74182-2.2621s-1.821-.58815-2.74844-.656a32.96871,32.96871,0,0,0-.11311,4.23013v5.25938a2.83886,2.83886,0,0,0,.23753,1.40251c.6447.40718,1.41381.58815,2.09245.93877a6.91047,6.91047,0,0,1-3.0086.28277,18.3682,18.3682,0,0,1-3.15563-.09049l-.2149-.22621a7.81555,7.81555,0,0,1,2.09245-.74649V66.07576a5.91548,5.91548,0,0,0-2.36389.28276,5.90422,5.90422,0,0,0-1.59479,2.52224h-.68994V65.39712m12.01176,0c1.91147,0,3.82295-.10179,5.73443.07918-.11311.20358-.2149.41849-.31669.63339l-1.24416.11311c-.07919.10179-.22621.31669-.29407.42981a48.98627,48.98627,0,0,0,2.805,4.98793c.837-1.24416,1.58347-2.53356,2.35259-3.823.181-.41849.52029-.91615.27146-1.36858-.58815-.28276-1.44775-.24883-1.64-1.01794,1.43644-.07918,2.87286,0,4.3093,0a2.53216,2.53216,0,0,0,.05655.656c-1.59478.70125-2.2621,2.36389-3.16694,3.74378a16.173,16.173,0,0,0-1.74181,3.5515,10.26945,10.26945,0,0,0,0,3.2235c.20358.89352,1.312.88222,2.01327,1.131v.52029c-2.01327.05655-4.02654,0-6.02851,0v-.56553a6.68342,6.68342,0,0,0,1.62872-.37325c.40718-.20358.33932-.72387.37325-1.13105V73.45023a5.16886,5.16886,0,0,0-.88222-2.12638c-.81436-1.40251-1.47037-2.89549-2.36389-4.25274a3.393,3.393,0,0,0-1.78706-1.13105v-.5316M96.314,65.74778c.07918-.475.63339-.27146.9614-.35062h5.05579a3.98131,3.98131,0,0,1,3.642,1.94541,3.95867,3.95867,0,0,1-.78043,3.94737,4.52419,4.52419,0,0,1-3.461,1.312c-.509.06786-1.19891-.15834-1.57216.28276a23.75322,23.75322,0,0,0-.05661,3.608c0,.9614,1.19891.95008,1.88886,1.13105v.52029c-1.821,0-3.6533.10179-5.463,0l-.20359-.26013c.39587-.44111,1.0745-.41849,1.56085-.73518a2.63537,2.63537,0,0,0,.23752-1.39119V67.77239a2.09242,2.09242,0,0,0-.39587-1.45909,6.232,6.232,0,0,1-1.459-.6447m3.8795.4298a33.08406,33.08406,0,0,0,0,5.65526,4.09441,4.09441,0,0,0,3.09908-.91615,3.39316,3.39316,0,0,0,.07918-3.95868c-.7465-.9614-2.09245-.82566-3.17826-.82566m7.21611-.49767c1.22153-.509,2.56748-.20358,3.85688-.27146,2.01327,0,4.03785-.10179,6.05112,0a3.68722,3.68722,0,0,1-.20359,3.29137c-.6447-.80306-1.04056-1.92279-2.02458-2.39783a17.79175,17.79175,0,0,0-3.72116-.07918,44.11114,44.11114,0,0,0,.09049,4.73911c.5429.48634,1.4025.26013,2.05851.15834,1.05188-.19227,1.22154-1.4025,1.68527-2.18292a3.8569,3.8569,0,0,1,.44111,2.5901,8.21165,8.21165,0,0,1-.22621,2.82763c-.81436-.23753-.61077-1.32333-1.21023-1.78706a2.90681,2.90681,0,0,0-1.97934-.48635c-.29407,0-.67863,0-.76911.33932a25.34732,25.34732,0,0,0-.09049,3.47234c0,.63338.181,1.44774.91616,1.58346a9.1955,9.1955,0,0,0,3.47232-.09048c1.35726-.45242,1.42512-2.149,2.37521-3.04253.13572.147.26014.30538.39586.46373a30.36866,30.36866,0,0,0-.20359,3.50627c-3.56281.06786-7.12562,0-10.68843,0v-.56553c.62208-.22621,1.76444-.2149,1.76444-1.13105v-8.924a1.60585,1.60585,0,0,0-.19228-1.0745c-.58815-.33931-1.23284-.57683-1.8323-.90484m11.729.20358c.46373-.68994,1.346-.46373,2.0472-.48634,1.21022.07918,2.46569-.22621,3.60805.29406-.62208.475-1.87754.41849-1.92279,1.40251-.06786,1.493,0,2.99728,0,4.52421a4.34333,4.34333,0,0,0,1.24416-.82567,20.03019,20.03019,0,0,0,2.99728-3.39315,2.364,2.364,0,0,0,.26015-.99533c-.49767-.20358-.984-.41848-1.47037-.656a6.69576,6.69576,0,0,1,2.88418-.29407,14.96354,14.96354,0,0,1,2.01327.05656v.45241a5.51972,5.51972,0,0,0-1.9341.90485c-.84829.837-1.54954,1.80969-2.39782,2.64665a9.64756,9.64756,0,0,0-1.35727,1.52693c0,.475.4298.81436.68995,1.131,1.28939,1.37988,2.35258,2.952,3.61936,4.36586a3.97,3.97,0,0,0,2.2621,1.19891l-.10179.53159a20.25778,20.25778,0,0,1-3.51757-.09048c-.90484-1.0632-1.58348-2.26211-2.52225-3.39316a11.97755,11.97755,0,0,0-2.64665-2.72585V75.735a2.49962,2.49962,0,0,0,.20359,1.25547,14.41088,14.41088,0,0,0,1.76444.90484,4.773,4.773,0,0,1-2.06982.28276,27.1455,27.1455,0,0,1-3.38185-.1018l-.181-.20358c.37325-.48635,1.13105-.37325,1.56085-.79174a3.65312,3.65312,0,0,0,.13572-1.13105V67.78367a4.24143,4.24143,0,0,0-.12441-1.19891,6.93321,6.93321,0,0,0-1.66265-.7691m13.30116-.39588a12.64547,12.64547,0,0,1,2.36389-.09048,30.23485,30.23485,0,0,1,3.20087.06786c.147.93877-1.59478.475-1.71919,1.41381a11.23062,11.23062,0,0,0-.06787,2.13769v6.98988a1.92173,1.92173,0,0,0,.23752,1.13105,8.49342,8.49342,0,0,0,1.77575.68994,1.18148,1.18148,0,0,1-.06786.475H132.2587v-.57683c.68995-.19227,1.88886-.147,1.91148-1.13105.06786-2.83893,0-5.65525,0-8.52811a2.77111,2.77111,0,0,0-.22621-1.42512c-.56553-.38455-1.312-.41848-1.821-.88222l.19228-.24883m122.15349-.07918h4.20751a3.55134,3.55134,0,0,1,1.48167.30538,5.316,5.316,0,0,1-1.78706.61076,3.22337,3.22337,0,0,0-.36194,1.54954v7.91735a1.68742,1.68742,0,0,0,.35062,1.30071,5.3957,5.3957,0,0,0,1.57216.5429v.59945h-5.87016v-.56551a7.38535,7.38535,0,0,0,1.65134-.33932c.35063-.16965.27146-.63338.30539-.95007V67.77235a5.11167,5.11167,0,0,0-.10179-1.13105,3.936,3.936,0,0,0-1.70788-.656,2.19,2.19,0,0,0-.16965-.475l.37325-.12442Z"/><path class="cls-3" d="M40.13153,11.42777A28.71408,28.71408,0,1,1,11.42777,40.15218l0-.031A28.70375,28.70375,0,0,1,40.13153,11.41744Zm0-.8886A29.59235,29.59235,0,1,1,10.53918,40.13152v-.01033A29.59235,29.59235,0,0,1,40.13153,10.53917Zm0-8.90663a38.499,38.499,0,1,1-38.499,38.499v-.01033A38.499,38.499,0,0,1,40.13153,1.63254Zm0-1.63254A40.14185,40.14185,0,1,1,0,40.15217q0-.01548,0-.031A40.14185,40.14185,0,0,1,40.13153,0ZM33.684,4.27767v.17565c-.4753.11366-.651.372-.50629.7646l.57862,2.37648A2.00452,2.00452,0,0,1,33.684,9.12362a2.63482,2.63482,0,0,1-1.52922.81627,3.4614,3.4614,0,0,1-1.77718-.08266,1.54989,1.54989,0,0,1-.9196-1.23991l-.59929-2.4488c-.07232-.4753-.3513-.66128-.8576-.558V5.43491l2.86211-.56829v.16532c-.61995.093-.83693.372-.651.8576l.59929,2.45914c.19632,1.03325.71295,1.39489,1.57054,1.19857a1.37937,1.37937,0,0,0,1.09524-1.88052l-.54762-2.25249c-.08266-.51662-.4133-.71294-1.03325-.589V4.64964Zm26.07929,5.0836-.093.155a.80594.80594,0,0,0-.96093.17566l-3.823,2.91377-.20665-.11366.372-4.96994a.80593.80593,0,0,0-.36164-.8266l.093-.155,2.45914,1.38456-.093.16532c-.4753-.26865-.73361-.29965-.78528-.07233a1.69477,1.69477,0,0,0-.093.69228l-.248,2.62446,2.16982-1.63254.093-.093a1.03331,1.03331,0,0,0,.31-.29965c.13432-.17565,0-.39263-.4443-.66128l.08266-.155Zm-22.15293-.465V8.72065c.54762,0,.80594-.22731.78528-.64062V4.48432c-.39264-.38231-.64062-.56829-.75428-.54763V3.761h1.85986L42.601,6.94346V4.60831c0-.496-.22731-.744-.8266-.75428V3.67838h1.88052V3.854c-.527.07233-.75428.28931-.69228.64062V8.9273h-.186L38.85029,4.939V7.96638c-.062.51662.217.7646.82661.75427v.186H37.69305ZM49.62711,9.99155v.16532l-2.81044-.45463V9.52659c.51662.07232.80593-.07233.8576-.434l.71294-3.58538c.07233-.35131-.14465-.57862-.64062-.682V4.64964l2.80012.45463v.17565a.11361.11361,0,0,1-.07233,0c-.496-.08266-.77494.05166-.81627.4133l-.72327,3.59572c-.05166.403.16532.63028.7336.70261ZM68.484,25.49034l-.155.11365-.97126-1.33289L68.391,21.41932l-.124-.17565-1.28123.92993c-.47529.248-.54762.57862-.20665,1.03325l-.155.11366-1.60154-2.20083.155-.11366c.25831.434.59929.4753,1.03325.11366l2.8931-2.0665a.6331.6331,0,0,0,.20665-1.03325l.155-.11366,1.52921,2.0665c.86793,1.21924.92992,2.11817.186,2.68646a1.43622,1.43622,0,0,1-1.87018-.20665l-.89893,2.69679a.33061.33061,0,0,0,0,.341Zm1.70486-5.63123L68.50463,21.099c.56829.8886,1.18823,1.03326,1.87018.4753s.75427-.96093.372-1.48788C70.54014,19.76612,70.35414,19.69379,70.18884,19.85911Zm3.58538,10.96281v-.217a1.73586,1.73586,0,0,0,1.16758-1.72553c-.124-.5373-.403-.77494-.84727-.72328s-.64061.31-.80594.96092L72.927,30.31563a1.69454,1.69454,0,0,1-1.28124,1.03325c-1.03325.05166-1.63254-.496-1.84951-1.6532a4.8967,4.8967,0,0,1,0-1.03326v-.31a.217.217,0,0,0-.22493-.20875l-.02306.0021v-.217l1.82886-.28931v.217c-1.03325.42363-1.49821,1.03325-1.3639,1.84952a.84725.84725,0,0,0,.98159.8266c.403,0,.6716-.3823.7956-1.03325l.19633-.558c.26864-1.03325.73361-1.53954,1.40522-1.58087a1.51884,1.51884,0,0,1,1.79786,1.47755,2.34526,2.34526,0,0,1,0,.86793,1.32354,1.32354,0,0,0,0,.372c0,.124.10334.19632.31.19632v.248ZM71.26343,45.57676h-.17565l.124-2.89311h.17565c-.062.59929.16533.86794.682.83694l4.01935.186c0-.97126-.36164-1.52922-1.21923-1.65321v-.217l1.51889.10333-.20665,4.877L74.66284,46.765v-.248a1.3329,1.3329,0,0,0,1.34323-1.49821l-4.009-.19632c-.51662-.10332-.76461.14465-.75427.7646Zm2.0665,10.55984-.17565-.062h0a.62.62,0,0,0-.07233-.59929l-1.7462-2.49014-1.35356-.558c-.465-.28931-.78527-.13432-.95059.4443l-.17565-.07233,1.03325-2.80011.17565.07233c-.217.53728-.08266.87826.4133,1.03325l1.09524.45463,2.97577-.47529a.95065.95065,0,0,0,.63029-.465l.17565.07232-1.03325,2.70713-.16533-.07233c.17565-.50629.17565-.7646,0-.7646a.70255.70255,0,0,0-.372,0h-.10333l-2.06651.26864L72.648,54.27676a1.48787,1.48787,0,0,0,.54762.57862c.20665.11366.39264-.062.57862-.51663l.17565.07233ZM71.70772,38.189h-.17565l-.155-2.83111h.17565c0,.51662.25831.7646.60961.74394l3.668-.08266c.3513,0,.52695-.25832.51663-.76461h.186l.155,2.83111h-.17565a.07231.07231,0,0,1,0-.062c0-.50629-.217-.74394-.5683-.71294L72.276,37.3934c-.403,0-.57861.22732-.52695.79561ZM26.55459,74.12553l-.08266.17565-2.78978-1.3639.093-.17565c.65095.372,1.03326.26865,1.26057-.31l1.39489-2.84145c.16533-.3513.155-.56829,0-.66128a4.132,4.132,0,0,0-.69228-.124l.08267-.17565,2.25249.093.155.07232L26.162,73.05094c-.33064.48563-.186.83693.4443,1.03325ZM52.8302,68.86628c.96093-.41331,1.63254-.29965,2.00451.3513q.32031.71294-.62,1.51888a2.18017,2.18017,0,0,1,1.91152,1.03325c.36164.95059,0,1.71521-1.2089,2.27315s-1.82886.341-2.21116-.39263-.08267-1.18824.65094-1.77719c-.92993,0-1.50854-.28931-1.7462-.84727-.33064-.83693.08267-1.53954,1.21924-2.0665Zm-.4133,1.14691c.20665.4443.71295.66128,1.54988.67161a1.28127,1.28127,0,0,0,0-1.03325c-.28931-.57862-.66128-.77494-1.12624-.57862a.69233.69233,0,0,0-.42364.94026Zm1.25023,3.09975c.32031.63029.71295.84727,1.19858.651s.58895-.60962.33064-1.17791-.72327-.69227-1.62221-.73361a.27931.27931,0,0,0,0,.11366,1.50862,1.50862,0,0,0,.093,1.21923ZM6.61282,53.37782l2.06651-.73361c-.217-.92993-.75428-1.21924-1.59121-.87826s-1.03326.74394-.82661,1.35356C6.25119,53.35715,6.38551,53.43981,6.61282,53.37782Zm5.30058.19632-.17565.062a1.66315,1.66315,0,0,0-.23765-.3823h0a.71288.71288,0,0,0-.67161,0L7.46008,54.4834a.60962.60962,0,0,0-.47529.90926l-.186.062-.89893-2.46947c-.434-1.32256-.20665-2.1595.68195-2.50047a1.37423,1.37423,0,0,1,1.41556.28931,3.42007,3.42007,0,0,1,.8576,1.7462l1.43622-.51663c.527-.10332.682-.4133.465-.94026l.17565-.07233.92993,2.56247Zm-7.66673-6.8298h-.186l-.124-4.691,1.54988-.05166v.186c-.90926.11366-1.31222.74395-1.21924,1.88052,0,.4443.11366.64062.38231.589l1.78753-.062c.062-.8266-.341-1.25023-1.18824-1.29156v-.186l2.61413-.093V43.221a1.15725,1.15725,0,0,0-1.25024,1.40522l1.88052-.062c.33064,0,.465-.20665.4133-.70261a2.06651,2.06651,0,0,0-1.42588-2.06651v-.217l1.6222.26864.124,4.74263H9.05131c0-.527-.217-.7646-.59929-.713l-3.73.13432q-.589,0-.558.74395ZM9.26828,32.3408h.17565l-.14465,2.72779h-.186c0-.434,0-.651-.155-.64062a.61992.61992,0,0,0-.341.17566L6.70581,35.98818l.16533.23765,1.53954.093c.38231.062.589-.16532.62-.69228h.186l-.155,2.71746h-.186c0-.48563-.155-.73361-.53729-.73361l-3.792-.23765c-.36164,0-.56829.19631-.61995.66128h-.186l.155-2.72779h.186c0,.527.17565.78527.69227.77494l1.6842.10333L4.846,34.304c-.17565-.217-.31-.32031-.4133-.31s-.26865.17565-.32031.682h-.186l.13432-2.34548h.186c-.11366.52695.434,1.42588,1.63254,2.70712L8.979,32.74376a.44426.44426,0,0,0,.19632-.31.22753.22753,0,0,1,.04132-.093Zm2.29382-5.16626.17565.07233L10.7045,29.91266l-.16532-.062c.155-.50629.062-.81627-.28931-.92993L6.73681,27.54651q-.51663-.19632-.80594.496l-.16532-.062.97126-2.67612.17565.07232a.08265.08265,0,0,1,0,.07233c-.17565.4753-.08266.76461.26865.87826l3.56472,1.3949c.372.186.64062,0,.81627-.53729Zm1.6842-2.90344-.14465-.11366c.2893-.403.25831-.7336-.10333-.98159L9.91923,20.9027c-.53729,0-.83694.10332-.87827.20665l-.155-.11366,1.03326-1.37423,4.36032-.22731L12.3577,17.94759a.66128.66128,0,0,0-1.09524.124l-.155-.11366,1.03325-1.40522.155.11366c-.23765.434-.17565.7336.155.90926l3.73,2.80011-.13432.17565-5.51756.33064,2.5418,1.92185a.64061.64061,0,0,0,1.09524-.124l.14466.11366L13.2773,24.27109Zm8.1317-12.399.13432.13433a.6131.6131,0,0,0,0,1.03325l.74394.73361a5.16618,5.16618,0,0,1-1.17791,1.80819,2.69685,2.69685,0,0,1-4.06068.17565,2.81045,2.81045,0,0,1-.242-3.9672q.07623-.08613.15931-.16581a4.71148,4.71148,0,0,1,1.03325-.65095,1.4572,1.4572,0,0,0,.341-.20665c.11366-.08267.10332-.25832,0-.51663l.155-.155,1.36389,1.32257-.13432.13432a2.40747,2.40747,0,0,0-2.5108.217c-.70262.73361-.434,1.69454.8266,2.88278s2.24216,1.43622,2.97577.67161c.4133-.39263.465-.72327.16532-1.03325l-.61995-.59929c-.25831-.31-.589-.248-1.03325.19632l-.13432-.13432,1.94251-2.00451Zm41.6194-.19631.124-.13433,3.42007,3.14109L65.5082,15.82943l-.16532-.155c.558-.73361.39263-1.45689-.496-2.19049-.31-.31-.53729-.36164-.682-.13433l-1.20891,1.32256a1.03325,1.03325,0,0,0,1.75653.05166l.13432.124L63.10071,16.78l-.14466-.124a1.15721,1.15721,0,0,0-.186-1.7772L61.5095,16.27372c-.248.20665-.17565.47529.22732.78527a2.06649,2.06649,0,0,0,2.4798.42363l.16533.155-1.32256.97126L59.567,15.39545l.124-.13432c.3823.3513.69228.372.91959.062L63.12139,12.554c.279-.26865.22731-.56829-.14466-.9196ZM35.78154,71.19109c1.03325,0,1.60154.42363,1.6532,1.1779,0,.51663-.4133.8886-1.2089,1.10558q1.29156.77495,1.3019,1.70487c-.08266,1.03325-.77494,1.52922-2.06651,1.52922s-1.78753-.4753-1.81852-1.31223c0-.66128.434-1.10558,1.35355-1.32256q-1.25023-.59929-1.2089-1.51888C33.839,71.66638,34.51063,71.21175,35.78154,71.19109Zm-.86793.8576c0,.47529.36164.89893,1.10558,1.26057a1.28128,1.28128,0,0,0,.39263-.89894c0-.64062-.26864-1.03325-.77494-1.03325A.71293.71293,0,0,0,34.91361,72.04869Zm-.22732,3.3684c0,.70261.279,1.03325.80594,1.10558s.78527-.29964.7956-.92993c0-.47529-.341-.92993-1.13658-1.35355l-.07232.093a1.5499,1.5499,0,0,0-.39264,1.03326Zm9.7229-2.8621c0,1.3019.20665,1.91151.77494,1.84952.248,0,.39264,0,.4443-.10332v-.28932a2.16987,2.16987,0,0,1,.07233-.465,5.16609,5.16609,0,0,0-.186-1.72553.558.558,0,0,0-.55795-.45464C44.51252,71.36674,44.32653,71.73872,44.40919,72.555ZM43.004,76.98764v-.13432a3.0171,3.0171,0,0,0,2.55213-2.22149,1.51916,1.51916,0,0,1-.45463.13432.97124.97124,0,0,1-.434,0,1.58087,1.58087,0,0,1-1.70487-1.7772,1.89084,1.89084,0,0,1,1.88265-1.899q.09207-.00041.18385.00816c1.40523.093,2.1285.92993,2.18017,2.5108q-.29964,2.97576-4.133,3.34774ZM40.14186,52.60289c3.34774.59929,4.474,3.8437,6.08586,8.55532.77494,2.27316,4.753.64062,3.58539-2.35581a30.99762,30.99762,0,0,0-3.28575-6.66447C45.29779,50.26774,42.756,49.4308,42.291,48.32522a.55781.55781,0,0,1,0-.11366V44.2542c6.66448,1.95284,8.96863,7.77005,11.23146,12.31636,1.03325,2.14917,5.09393.217,3.49239-2.57279-2.36615-4.133-4.567-10.33253-12.85366-13.52528a3.67846,3.67846,0,0,0-1.87019-.29964V38.61264a2.13883,2.13883,0,0,0-4.27766,0v1.50855a3.90573,3.90573,0,0,0-1.69454.32031c-8.266,3.23408-10.48751,9.38193-12.85366,13.52527-1.60154,2.78978,2.41781,4.722,3.49239,2.5728,2.19049-4.536,4.45332-10.28086,11.00413-12.28537v4.133c-.53728,1.08492-3.00676,1.92185-4.21567,3.761a30.55379,30.55379,0,0,0-3.27541,6.66447c-1.12624,3.00677,2.80013,4.61864,3.58539,2.34549C35.66787,56.44658,36.79412,53.20217,40.14186,52.60289Zm4.009-34.56229h0a2.06649,2.06649,0,0,0-2.13756,1.99291q-.00129.03678-.00127.07359V33.715a2.0665,2.0665,0,0,0,2.06523,2.06777q.03681,0,.0736-.00126h0a2.28492,2.28492,0,0,0,.38231,0c7.05711,2.67612,11.03513,7.92505,14.26921,12.306,1.43622,1.92185,4.88729-.217,3.02743-2.84144-2.92411-4.133-7.05712-9.41293-14.46553-12.65734a4.47389,4.47389,0,0,0-1.03326-.31V27.23653c4.66,1.21924,7.70807,3.50273,11.57243,6.46816,1.91151,1.45689,4.629-1.56021,2.11817-3.56472a36.16382,36.16382,0,0,0-13.48395-6.98478H46.331V20.15875A2.0665,2.0665,0,0,0,44.26581,18.091q-.03681,0-.0736.00127Zm-8.0387,0a2.06649,2.06649,0,0,1,2.13756,1.99291q.00129.03678.00127.07359V33.715a2.0665,2.0665,0,0,1-2.06523,2.06777q-.03681,0-.0736-.00126a2.40855,2.40855,0,0,1-.38231,0c-7.05711,2.67612-11.0248,7.92505-14.26921,12.306-1.43622,1.92185-4.877-.217-3.02743-2.84144,2.93443-4.133,7.06744-9.41293,14.46553-12.65734a4.21558,4.21558,0,0,1,1.03326-.31V27.23653c-4.58765,1.21924-7.6874,3.50273-11.5311,6.46816-1.91152,1.45689-4.629-1.56021-2.06651-3.56472a36.16392,36.16392,0,0,1,13.43228-6.98478h.217V20.15875a2.06651,2.06651,0,0,1,2.06558-2.06743q.03147,0,.06292.00093Zm4.01935-4.784A26.86456,26.86456,0,1,1,13.267,40.12119,26.86456,26.86456,0,0,1,40.13153,13.25663Z"/></g></g></svg>