<svg xmlns="http://www.w3.org/2000/svg" width="32" height="32" viewBox="0 0 24 24"><!-- Icon from MingCute Icon by MingCute Design - https://github.com/Richard9394/MingCute/blob/main/LICENSE --><g fill="none"><path d="m12.593 23.258l-.011.002l-.071.035l-.02.004l-.014-.004l-.071-.035q-.016-.005-.024.005l-.004.01l-.017.428l.005.02l.01.013l.104.074l.015.004l.012-.004l.104-.074l.012-.016l.004-.017l-.017-.427q-.004-.016-.017-.018m.265-.113l-.013.002l-.185.093l-.01.01l-.003.011l.018.43l.005.012l.008.007l.201.093q.019.005.029-.008l.004-.014l-.034-.614q-.005-.018-.02-.022m-.715.002a.02.02 0 0 0-.027.006l-.006.014l-.034.614q.001.018.017.024l.015-.002l.201-.093l.01-.008l.004-.011l.017-.43l-.003-.012l-.01-.01z"/><path fill="#333" d="M2 12.08c-.006-.862.91-1.356 1.618-.975l.095.058l2.678 1.804c.972.655.377 2.143-.734 2.007l-.117-.02l-1.063-.234a8.002 8.002 0 0 0 14.804.605a1 1 0 0 1 1.82.828c-1.987 4.37-6.896 6.793-11.687 5.509A10 10 0 0 1 2 12.08m.903-4.228C4.89 3.482 9.799 1.06 14.59 2.343a10 10 0 0 1 7.414 9.581c.007.863-.91 1.358-1.617.976l-.096-.058l-2.678-1.804c-.972-.655-.377-2.143.734-2.007l.117.02l1.063.234A8.002 8.002 0 0 0 4.723 8.68a1 1 0 1 1-1.82-.828"/></g></svg>