<svg id="Capa_1" enable-background="new 0 0 494.68 494.68" height="512" viewBox="0 0 494.68 494.68" width="512" xmlns="http://www.w3.org/2000/svg"><g><path d="m257.214 249.288h-19.747c-48.144 0-87.172-39.028-87.172-87.172v-74.19l98.112-20 95.98 20v74.19c-.001 48.144-39.029 87.172-87.173 87.172z" fill="#d4f2f6"/><path d="m314.386 87.926v72.286c0 47.436-36.289 86.207-82.046 88.919 1.697.101 3.405.157 5.126.157h19.748c48.144 0 87.172-39.881 87.172-89.076v-72.286l-12.055-10z" fill="#a6e7f0"/><path d="m162.348 205.424c15.165 26.251 43.126 43.865 75.118 43.865h19.748c31.992 0 59.953-17.613 75.118-43.865z" fill="#e9b665"/><path d="m302.331 205.424c-14.348 24.838-40.156 41.934-69.991 43.703 1.697.101 3.405.162 5.126.162h19.748c31.992 0 59.953-17.613 75.118-43.865z" fill="#d8aa5e"/><path d="m61.451 87.247h30.774v361.346h-30.774z" fill="#a74b30"/><path d="m402.455 87.247h30.774v361.346h-30.774z" fill="#a74b30"/><path d="m257.214 249.18h-19.747c-48.144 0-87.172 39.028-87.172 87.172v70.741l97.046 20 97.046-20v-70.741c-.001-48.144-39.029-87.172-87.173-87.172z" fill="#d4f2f6"/><path d="m257.214 249.18h-19.748c-1.721 0-3.429.056-5.126.154 45.757 2.654 82.046 40.596 82.046 87.018v70.741h30v-70.741c0-48.144-39.028-87.172-87.172-87.172z" fill="#a6e7f0"/><path d="m433.229 87.247h-371.778v-43.736l185.889-20 185.889 20z" fill="#d6694b"/><path d="m403.229 43.511h30v43.735h-30z" fill="#c4573a"/><circle cx="73.942" cy="241.774" fill="#fbc56d" r="27.96"/><circle cx="417.842" cy="241.774" fill="#fbc56d" r="27.96"/><g fill="#e9b665"><path d="m247.34 296.179c-4.143 0-7.5-3.358-7.5-7.5v-25.891c0-4.142 3.357-7.5 7.5-7.5s7.5 3.358 7.5 7.5v25.891c0 4.142-3.358 7.5-7.5 7.5z"/><path d="m247.646 327.765c-4.143 0-7.5-3.358-7.5-7.5v-6.55c0-4.142 3.357-7.5 7.5-7.5s7.5 3.358 7.5 7.5v6.55c0 4.142-3.357 7.5-7.5 7.5z"/><path d="m247.646 356.637c-4.143 0-7.5-3.358-7.5-7.5v-6.55c0-4.142 3.357-7.5 7.5-7.5s7.5 3.358 7.5 7.5v6.55c0 4.142-3.357 7.5-7.5 7.5z"/><path d="m150.294 343.504v63.589l97.046 20 97.046-20v-63.589z"/></g><path d="m314.386 343.504h30v63.589h-30z" fill="#d8aa5e"/><path d="m443.016 43.735h-391.352c-13.321 0-24.119-10.798-24.119-24.119v-9.352c0-5.668 4.595-10.264 10.264-10.264h419.061c5.669 0 10.264 4.596 10.264 10.264v9.352c.001 13.321-10.798 24.119-24.118 24.119z" fill="#e9b665"/><path d="m456.87 0h-30c5.669 0 10.265 4.596 10.265 10.265v9.352c0 13.321-10.798 24.119-24.119 24.119h30c13.321 0 24.119-10.798 24.119-24.119v-9.352c0-5.669-4.596-10.265-10.265-10.265z" fill="#d8aa5e"/><path d="m433.229 407.433h-371.778v43.735l185.889 20 185.889-20z" fill="#d6694b"/><path d="m403.229 407.433h30v43.735h-30z" fill="#c4573a"/><path d="m443.016 450.944h-391.352c-13.321 0-24.119 10.798-24.119 24.119v4.026c0 8.61 6.98 15.59 15.59 15.59h408.409c8.61 0 15.59-6.98 15.59-15.59v-4.026c.001-13.32-10.798-24.119-24.118-24.119z" fill="#e9b665"/><path d="m443.016 450.944h-30c13.321 0 24.119 10.798 24.119 24.119v4.026c0 8.611-6.98 15.591-15.59 15.591h30c8.61 0 15.59-6.98 15.59-15.591v-4.026c0-13.32-10.799-24.119-24.119-24.119z" fill="#d8aa5e"/></g></svg>