<?xml version="1.0" standalone="no"?><!DOCTYPE svg PUBLIC "-//W3C//DTD SVG 1.1//EN" "http://www.w3.org/Graphics/SVG/1.1/DTD/svg11.dtd"><svg t="1742039579420" class="icon" viewBox="0 0 1024 1024" version="1.1" xmlns="http://www.w3.org/2000/svg" p-id="5577" data-spm-anchor-id="a313x.search_index.0.i0.49713a810WJS07" xmlns:xlink="http://www.w3.org/1999/xlink" width="200" height="200"><path d="M525.141333 173.177905l209.237334 106.179047a34.54781 34.54781 0 0 1 0 59.855238c-11.702857 6.753524-24.868571 13.263238-40.17981 20.065524l-41.081905 17.310476c9.825524 21.065143 15.36 44.665905 15.36 69.558858a162.669714 162.669714 0 0 1-63.780571 129.80419c91.745524 39.545905 151.28381 131.047619 151.113143 232.301714 0 13.970286-10.971429 25.209905-24.478476 25.209905s-24.454095-11.239619-24.454096-25.209905c0-110.762667-87.430095-200.825905-194.876952-200.825904s-194.876952 90.038857-194.876952 200.825904c0 13.970286-10.947048 25.209905-24.454096 25.209905-13.531429 0-24.478476-11.239619-24.478476-25.209905-0.26819-101.254095 59.245714-192.804571 150.991238-232.301714a162.791619 162.791619 0 0 1-63.707428-129.80419c0-24.892952 5.510095-48.493714 15.311238-69.558858l-40.96-17.237333a621.226667 621.226667 0 0 1-10.873905-4.973714l0.024381 101.180952a24.380952 24.380952 0 0 1-48.591238 2.852572l-0.170667-2.852572v-146.285714c0-6.144 2.29181-11.751619 6.046476-16.042667l0.658286-1.170285c2.438095-4.242286 5.705143-7.875048 10.24-11.044572l3.584-2.267428 204.01981-103.472762c9.606095-5.534476 21.211429-6.095238 30.378666-2.096762z m-13.165714 162.084571c-59.343238 0-107.641905 49.737143-107.641905 110.884572 0 61.123048 48.298667 110.884571 107.617524 110.884571s107.641905-49.761524 107.641905-110.884571-48.323048-110.884571-107.641905-110.884572zM512 221.135238l-174.055619 88.259048 3.657143 1.755428 9.264762 4.169143 42.081524 17.724953 5.363809 2.31619c28.525714-31.061333 68.924952-50.468571 113.615238-50.468571 44.665905 0 85.016381 19.382857 113.566476 50.419809l1.365334-0.609524 47.494095-19.992381 11.556571-5.290666-173.909333-88.283429z" fill="#666" p-id="5578"></path></svg>