<svg xmlns="http://www.w3.org/2000/svg" width="32" height="32" viewBox="0 0 24 24"><!-- Icon from All by undefined - undefined --><path fill="#1E9BF0" fill-rule="evenodd" d="M15.418 5.643a1.25 1.25 0 0 0-1.34-.555l-1.798.413a1.25 1.25 0 0 1-.56 0l-1.798-.413a1.25 1.25 0 0 0-1.34.555l-.98 1.564c-.1.16-.235.295-.395.396l-1.564.98a1.25 1.25 0 0 0-.555 1.338l.413 1.8a1.25 1.25 0 0 1 0 .559l-.413 1.799a1.25 1.25 0 0 0 .555 1.339l1.564.98c.16.1.295.235.396.395l.98 1.564c.282.451.82.674 1.339.555l1.798-.413a1.25 1.25 0 0 1 .56 0l1.799.413a1.25 1.25 0 0 0 1.339-.555l.98-1.564c.1-.16.235-.295.395-.395l1.565-.98a1.25 1.25 0 0 0 .554-1.34L18.5 12.28a1.25 1.25 0 0 1 0-.56l.413-1.799a1.25 1.25 0 0 0-.554-1.339l-1.565-.98a1.25 1.25 0 0 1-.395-.395zm-.503 4.127a.5.5 0 0 0-.86-.509l-2.615 4.426l-1.579-1.512a.5.5 0 1 0-.691.722l2.034 1.949a.5.5 0 0 0 .776-.107z" clip-rule="evenodd"/></svg>