<svg xmlns="http://www.w3.org/2000/svg" width="665" height="91" viewBox="0 0 665 91">
    <defs>
        <linearGradient id="a" x1="99.21%" x2="0%" y1="0%" y2="96.966%">
            <stop offset="0%" stop-color="#3090D0"/>
            <stop offset="100%" stop-color="#0E5C93"/>
        </linearGradient>
    </defs>
    <path fill="url(#a)" fill-rule="evenodd" d="M405.92 160.15h-12.393l-2.813 7.65h-2.419l10.332-27.3h2.193l10.332 27.3h-2.4l-2.832-7.65zm-11.681-1.969h10.95l-5.475-14.868-5.475 14.868zm23.567 4.95l.337 1.744.45-1.837 4.875-15.525h1.913l4.819 15.393.525 2.138.431-1.969 4.162-15.562h2.325l-5.906 20.287h-1.912l-5.213-16.087-.244-1.107-.243 1.125-5.119 16.069h-1.913l-5.887-20.287h2.306l4.294 15.618zm30.88 5.044c-1.726 0-3.285-.425-4.679-1.275-1.393-.85-2.478-2.034-3.253-3.553-.775-1.519-1.162-3.222-1.162-5.11v-.806c0-1.95.378-3.706 1.134-5.268.756-1.563 1.81-2.791 3.16-3.685 1.35-.894 2.812-1.34 4.387-1.34 2.462 0 4.416.84 5.86 2.521 1.443 1.682 2.165 3.978 2.165 6.891v1.256h-14.475v.432c0 2.3.66 4.215 1.978 5.746 1.319 1.532 2.978 2.297 4.978 2.297 1.2 0 2.26-.218 3.178-.656.92-.437 1.753-1.137 2.503-2.1l1.407 1.069c-1.65 2.387-4.044 3.581-7.182 3.581zm-.413-19.125c-1.688 0-3.11.619-4.266 1.856-1.156 1.238-1.86 2.9-2.11 4.988h12.17v-.244c-.063-1.95-.62-3.537-1.67-4.762-1.05-1.226-2.424-1.838-4.124-1.838zm23.473 13.594c0-1.113-.447-2.006-1.34-2.681-.894-.676-2.241-1.204-4.041-1.585-1.8-.381-3.197-.819-4.19-1.312-.994-.494-1.732-1.097-2.213-1.81-.481-.712-.722-1.575-.722-2.587 0-1.6.669-2.922 2.006-3.966 1.338-1.044 3.05-1.565 5.138-1.565 2.262 0 4.078.559 5.447 1.678 1.368 1.118 2.053 2.578 2.053 4.378h-2.25c0-1.188-.497-2.175-1.491-2.963-.994-.787-2.247-1.181-3.76-1.181-1.474 0-2.659.328-3.552.984-.894.657-1.341 1.51-1.341 2.56 0 1.012.372 1.797 1.116 2.353.743.556 2.1 1.065 4.068 1.528 1.969.463 3.444.956 4.425 1.481.982.525 1.71 1.156 2.185 1.894.475.738.712 1.631.712 2.681 0 1.713-.69 3.081-2.072 4.107-1.381 1.025-3.184 1.537-5.41 1.537-2.362 0-4.277-.572-5.746-1.716-1.469-1.143-2.203-2.59-2.203-4.34h2.25c.087 1.312.64 2.334 1.66 3.065 1.018.732 2.365 1.097 4.04 1.097 1.562 0 2.825-.343 3.787-1.031.963-.688 1.444-1.556 1.444-2.606zm4.986-5.288c0-1.95.378-3.706 1.134-5.268.756-1.563 1.825-2.779 3.206-3.647 1.382-.87 2.947-1.303 4.697-1.303 2.7 0 4.888.946 6.563 2.84 1.675 1.894 2.512 4.403 2.512 7.528v.469c0 1.963-.378 3.728-1.134 5.297-.756 1.569-1.822 2.778-3.197 3.628-1.375.85-2.944 1.275-4.706 1.275-2.688 0-4.872-.947-6.553-2.84-1.682-1.894-2.522-4.404-2.522-7.529v-.45zm2.25.619c0 2.425.628 4.416 1.884 5.972 1.256 1.556 2.903 2.334 4.94 2.334 2.026 0 3.666-.778 4.923-2.334 1.256-1.556 1.884-3.61 1.884-6.16v-.43c0-1.55-.287-2.97-.862-4.257-.575-1.288-1.382-2.284-2.42-2.99-1.037-.707-2.224-1.06-3.562-1.06-2 0-3.63.784-4.893 2.353-1.263 1.569-1.894 3.622-1.894 6.16v.412zm21.467-10.462l.075 3.3c.75-1.226 1.687-2.144 2.812-2.757 1.125-.612 2.375-.918 3.75-.918 3.2 0 5.232 1.312 6.094 3.937.725-1.263 1.694-2.234 2.906-2.916 1.213-.68 2.55-1.021 4.013-1.021 4.35 0 6.569 2.374 6.656 7.125V167.8h-2.25v-13.369c-.012-1.812-.403-3.156-1.172-4.031-.769-.875-2.022-1.312-3.76-1.312-1.612.025-2.974.546-4.087 1.565-1.112 1.019-1.73 2.26-1.856 3.722V167.8h-2.25v-13.537c-.012-1.738-.422-3.035-1.228-3.891-.806-.856-2.047-1.284-3.722-1.284-1.412 0-2.625.403-3.637 1.209-1.013.806-1.763 2.003-2.25 3.59V167.8h-2.25v-20.287h2.156zm38.773 20.662c-1.725 0-3.284-.425-4.678-1.275-1.394-.85-2.478-2.034-3.253-3.553-.775-1.519-1.163-3.222-1.163-5.11v-.806c0-1.95.378-3.706 1.135-5.268.756-1.563 1.809-2.791 3.159-3.685 1.35-.894 2.813-1.34 4.388-1.34 2.462 0 4.415.84 5.859 2.521 1.444 1.682 2.166 3.978 2.166 6.891v1.256H532.36v.432c0 2.3.659 4.215 1.978 5.746 1.318 1.532 2.978 2.297 4.978 2.297 1.2 0 2.26-.218 3.178-.656.919-.437 1.753-1.137 2.503-2.1l1.406 1.069c-1.65 2.387-4.043 3.581-7.181 3.581zm-.412-19.125c-1.688 0-3.11.619-4.266 1.856-1.156 1.238-1.86 2.9-2.11 4.988h12.17v-.244c-.063-1.95-.62-3.537-1.67-4.762-1.05-1.226-2.424-1.838-4.124-1.838zm13.723 11.156h-2.082l-.112-19.706h2.325l-.131 19.706zm-2.457 6.282c0-.425.138-.785.413-1.079.275-.293.65-.44 1.125-.44s.853.147 1.134.44a1.5 1.5 0 0 1 .422 1.079c0 .412-.14.759-.422 1.04-.28.281-.659.422-1.134.422-.475 0-.85-.14-1.125-.422a1.43 1.43 0 0 1-.413-1.04zm36.766 1.312h-2.307l-15.693-23.362V167.8h-2.325v-27.3h2.325l15.712 23.381V140.5h2.288v27.3zm4.104-10.444c0-1.95.378-3.706 1.134-5.268.757-1.563 1.825-2.779 3.207-3.647 1.381-.87 2.947-1.303 4.697-1.303 2.7 0 4.887.946 6.562 2.84 1.675 1.894 2.513 4.403 2.513 7.528v.469c0 1.963-.379 3.728-1.135 5.297-.756 1.569-1.822 2.778-3.197 3.628-1.375.85-2.943 1.275-4.706 1.275-2.687 0-4.872-.947-6.553-2.84-1.681-1.894-2.522-4.404-2.522-7.529v-.45zm2.25.619c0 2.425.628 4.416 1.884 5.972 1.257 1.556 2.904 2.334 4.941 2.334 2.025 0 3.666-.778 4.922-2.334 1.256-1.556 1.884-3.61 1.884-6.16v-.43c0-1.55-.287-2.97-.862-4.257-.575-1.288-1.381-2.284-2.419-2.99-1.037-.707-2.225-1.06-3.562-1.06-2 0-3.632.784-4.894 2.353-1.263 1.569-1.894 3.622-1.894 6.16v.412zm24.28 5.156l.337 1.744.45-1.837 4.875-15.525h1.913l4.818 15.393.525 2.138.432-1.969 4.162-15.562h2.325l-5.906 20.287h-1.913l-5.212-16.087-.244-1.107-.244 1.125-5.118 16.069h-1.913l-5.887-20.287h2.306l4.294 15.618zm37.72 1.444l5.926-17.062h2.419l-8.663 23.737-.45 1.05c-1.112 2.463-2.831 3.694-5.156 3.694a6.294 6.294 0 0 1-1.725-.263l-.019-1.856 1.163.113c1.1 0 1.99-.272 2.672-.816.68-.544 1.259-1.478 1.734-2.803l.994-2.738-7.65-20.118h2.456l6.3 17.062zm9.224-7.219c0-1.95.378-3.706 1.135-5.268.756-1.563 1.825-2.779 3.206-3.647 1.381-.87 2.947-1.303 4.697-1.303 2.7 0 4.887.946 6.562 2.84 1.675 1.894 2.513 4.403 2.513 7.528v.469c0 1.963-.378 3.728-1.135 5.297-.756 1.569-1.822 2.778-3.197 3.628-1.375.85-2.943 1.275-4.706 1.275-2.687 0-4.872-.947-6.553-2.84-1.681-1.894-2.522-4.404-2.522-7.529v-.45zm2.25.619c0 2.425.628 4.416 1.885 5.972 1.256 1.556 2.903 2.334 4.94 2.334 2.025 0 3.666-.778 4.922-2.334 1.256-1.556 1.884-3.61 1.884-6.16v-.43c0-1.55-.287-2.97-.862-4.257-.575-1.288-1.381-2.284-2.419-2.99-1.037-.707-2.225-1.06-3.562-1.06-2 0-3.632.784-4.894 2.353-1.263 1.569-1.894 3.622-1.894 6.16v.412zm32.473 7.256c-1.35 1.963-3.506 2.944-6.468 2.944-2.163 0-3.807-.628-4.932-1.884-1.125-1.257-1.7-3.116-1.725-5.578v-13.2h2.232v12.918c0 3.863 1.562 5.794 4.687 5.794 3.25 0 5.306-1.344 6.169-4.031v-14.681h2.25V167.8h-2.175l-.038-2.569zm22.74 1.05c1.563 0 2.872-.44 3.929-1.322 1.056-.88 1.628-2.021 1.715-3.421h2.157a6.353 6.353 0 0 1-1.163 3.384c-.712 1.019-1.66 1.816-2.84 2.39a8.56 8.56 0 0 1-3.797.863c-2.663 0-4.772-.925-6.329-2.775-1.556-1.85-2.334-4.337-2.334-7.462v-.675c0-2 .35-3.77 1.05-5.307.7-1.537 1.703-2.725 3.01-3.562 1.306-.838 2.834-1.256 4.584-1.256 2.225 0 4.06.662 5.503 1.987 1.444 1.325 2.216 3.069 2.316 5.231h-2.157c-.1-1.587-.672-2.868-1.715-3.843-1.044-.976-2.36-1.463-3.947-1.463-2.025 0-3.597.731-4.716 2.194-1.119 1.462-1.678 3.512-1.678 6.15v.656c0 2.588.56 4.606 1.678 6.056 1.119 1.45 2.697 2.175 4.735 2.175zM745.9 167.8c-.225-.638-.368-1.581-.43-2.831a7.824 7.824 0 0 1-3.01 2.372 9.217 9.217 0 0 1-3.872.834c-1.95 0-3.528-.544-4.734-1.631-1.207-1.088-1.81-2.463-1.81-4.125 0-1.975.822-3.538 2.466-4.688 1.644-1.15 3.934-1.725 6.872-1.725h4.068V153.7c0-1.45-.446-2.59-1.34-3.422-.894-.831-2.197-1.247-3.91-1.247-1.562 0-2.856.4-3.88 1.2-1.026.8-1.538 1.763-1.538 2.888l-2.25-.019c0-1.613.75-3.01 2.25-4.19 1.5-1.182 3.343-1.772 5.531-1.772 2.262 0 4.047.565 5.353 1.696 1.306 1.132 1.978 2.71 2.016 4.735v9.6c0 1.962.206 3.431.618 4.406v.225h-2.4zm-7.05-1.612c1.5 0 2.841-.363 4.022-1.088 1.182-.725 2.041-1.694 2.578-2.906v-4.463h-4.012c-2.238.025-3.988.435-5.25 1.228-1.263.794-1.894 1.885-1.894 3.272 0 1.138.422 2.081 1.266 2.832.844.75 1.94 1.125 3.29 1.125zm15.88-18.675l.075 3.468c.762-1.25 1.712-2.203 2.85-2.86 1.137-.655 2.394-.983 3.769-.983 2.175 0 3.793.612 4.856 1.837 1.062 1.225 1.6 3.062 1.612 5.513V167.8h-2.23v-13.331c-.013-1.813-.398-3.163-1.154-4.05-.756-.888-1.966-1.331-3.628-1.331-1.388 0-2.616.434-3.684 1.303-1.07.868-1.86 2.04-2.372 3.515V167.8h-2.232v-20.287h2.138zm38.303 15.13c0-1.112-.447-2.005-1.341-2.68-.894-.676-2.24-1.204-4.04-1.585-1.8-.381-3.198-.819-4.191-1.312-.994-.494-1.732-1.097-2.213-1.81-.481-.712-.722-1.575-.722-2.587 0-1.6.67-2.922 2.007-3.966 1.337-1.044 3.05-1.565 5.137-1.565 2.263 0 4.078.559 5.447 1.678 1.369 1.118 2.053 2.578 2.053 4.378h-2.25c0-1.188-.497-2.175-1.49-2.963-.994-.787-2.247-1.181-3.76-1.181-1.475 0-2.66.328-3.553.984-.894.657-1.34 1.51-1.34 2.56 0 1.012.371 1.797 1.115 2.353.744.556 2.1 1.065 4.069 1.528 1.968.463 3.443.956 4.425 1.481.981.525 1.71 1.156 2.184 1.894.475.738.713 1.631.713 2.681 0 1.713-.691 3.081-2.072 4.107-1.382 1.025-3.185 1.537-5.41 1.537-2.362 0-4.278-.572-5.747-1.716-1.468-1.143-2.203-2.59-2.203-4.34h2.25c.088 1.312.641 2.334 1.66 3.065 1.018.732 2.365 1.097 4.04 1.097 1.563 0 2.825-.343 3.788-1.031.962-.688 1.444-1.556 1.444-2.606zm9.71-20.324v5.194h4.2v1.837h-4.2v13.519c0 1.125.203 1.962.61 2.512.406.55 1.084.825 2.034.825.375 0 .981-.062 1.819-.187l.094 1.837c-.588.213-1.388.319-2.4.319-1.538 0-2.657-.447-3.357-1.34-.7-.894-1.05-2.21-1.05-3.947V149.35h-3.731v-1.837h3.731v-5.194h2.25zM823.33 167.8c-.225-.638-.369-1.581-.431-2.831a7.824 7.824 0 0 1-3.01 2.372 9.217 9.217 0 0 1-3.872.834c-1.95 0-3.528-.544-4.734-1.631-1.206-1.088-1.81-2.463-1.81-4.125 0-1.975.823-3.538 2.466-4.688 1.644-1.15 3.935-1.725 6.872-1.725h4.069V153.7c0-1.45-.447-2.59-1.34-3.422-.894-.831-2.197-1.247-3.91-1.247-1.563 0-2.856.4-3.881 1.2-1.025.8-1.538 1.763-1.538 2.888l-2.25-.019c0-1.613.75-3.01 2.25-4.19 1.5-1.182 3.344-1.772 5.531-1.772 2.263 0 4.047.565 5.354 1.696 1.306 1.132 1.978 2.71 2.015 4.735v9.6c0 1.962.206 3.431.619 4.406v.225h-2.4zm-7.05-1.612c1.5 0 2.84-.363 4.022-1.088 1.181-.725 2.04-1.694 2.578-2.906v-4.463h-4.013c-2.237.025-3.987.435-5.25 1.228-1.262.794-1.893 1.885-1.893 3.272 0 1.138.422 2.081 1.265 2.832.844.75 1.941 1.125 3.291 1.125zm23.117-16.763a8.38 8.38 0 0 0-1.519-.131c-1.4 0-2.584.39-3.553 1.172-.969.78-1.66 1.915-2.072 3.403V167.8h-2.231v-20.287h2.194l.037 3.225c1.188-2.4 3.094-3.6 5.719-3.6.625 0 1.119.08 1.481.243l-.056 2.044zm6.898-7.106v5.194h4.2v1.837h-4.2v13.519c0 1.125.203 1.962.61 2.512.406.55 1.084.825 2.034.825.375 0 .981-.062 1.819-.187l.093 1.837c-.587.213-1.387.319-2.4.319-1.537 0-2.656-.447-3.356-1.34-.7-.894-1.05-2.21-1.05-3.947V149.35h-3.731v-1.837h3.731v-5.194h2.25zm32.378 15.544c0 3.162-.7 5.671-2.1 7.528-1.4 1.856-3.281 2.784-5.644 2.784-2.825 0-4.962-1.05-6.412-3.15l-.094 2.775h-2.1V139h2.231v11.456c1.425-2.212 3.538-3.318 6.338-3.318 2.4 0 4.296.915 5.69 2.746 1.394 1.832 2.09 4.378 2.09 7.641v.338zm-2.25-.394c0-2.675-.519-4.74-1.556-6.197-1.038-1.456-2.5-2.184-4.388-2.184-1.437 0-2.656.353-3.656 1.059s-1.756 1.74-2.269 3.103v9.15c1.125 2.55 3.113 3.825 5.963 3.825 1.85 0 3.296-.731 4.34-2.194 1.044-1.462 1.566-3.65 1.566-6.562zm12.354 7.106l5.925-17.062h2.419l-8.662 23.737-.45 1.05c-1.113 2.463-2.832 3.694-5.157 3.694a6.294 6.294 0 0 1-1.725-.263l-.018-1.856 1.162.113c1.1 0 1.99-.272 2.672-.816.681-.544 1.26-1.478 1.734-2.803l.994-2.738-7.65-20.118h2.456l6.3 17.062zm22.497-22.256v5.194h4.2v1.837h-4.2v13.519c0 1.125.203 1.962.609 2.512.406.55 1.084.825 2.034.825.375 0 .982-.062 1.82-.187l.093 1.837c-.588.213-1.388.319-2.4.319-1.538 0-2.656-.447-3.356-1.34-.7-.894-1.05-2.21-1.05-3.947V149.35h-3.732v-1.837h3.732v-5.194h2.25zm17.154 7.106a8.38 8.38 0 0 0-1.519-.131c-1.4 0-2.584.39-3.553 1.172-.969.78-1.66 1.915-2.072 3.403V167.8h-2.23v-20.287h2.193l.037 3.225c1.188-2.4 3.094-3.6 5.72-3.6.624 0 1.118.08 1.48.243l-.056 2.044zm9.242 15.15l5.925-17.062h2.419l-8.663 23.737-.45 1.05c-1.112 2.463-2.83 3.694-5.156 3.694a6.294 6.294 0 0 1-1.725-.263l-.019-1.856 1.163.113c1.1 0 1.99-.272 2.672-.816.681-.544 1.26-1.478 1.734-2.803l.994-2.738-7.65-20.118h2.456l6.3 17.062zm13.255 3.225h-2.25v-20.287h2.25V167.8zm-2.644-26.156c0-.425.137-.785.412-1.078.275-.294.65-.441 1.125-.441s.853.147 1.135.44a1.5 1.5 0 0 1 .422 1.079c0 .425-.141.781-.422 1.069-.282.287-.66.43-1.135.43s-.85-.143-1.125-.43a1.486 1.486 0 0 1-.412-1.07zm9.804 5.869l.075 3.468c.763-1.25 1.713-2.203 2.85-2.86 1.138-.655 2.394-.983 3.769-.983 2.175 0 3.794.612 4.856 1.837 1.063 1.225 1.6 3.062 1.613 5.513V167.8h-2.232v-13.331c-.012-1.813-.396-3.163-1.153-4.05-.756-.888-1.965-1.331-3.628-1.331-1.387 0-2.615.434-3.684 1.303-1.069.868-1.86 2.04-2.372 3.515V167.8h-2.231v-20.287h2.137zm16.986 9.956c0-3.175.703-5.69 2.11-7.547 1.406-1.856 3.315-2.784 5.727-2.784 2.763 0 4.863 1.1 6.3 3.3l.113-2.925h2.1v19.875c0 2.612-.731 4.68-2.194 6.206-1.462 1.525-3.444 2.287-5.944 2.287a9.028 9.028 0 0 1-4.04-.947c-1.281-.63-2.29-1.471-3.028-2.521l1.256-1.35c1.587 1.95 3.475 2.925 5.662 2.925 1.875 0 3.338-.554 4.388-1.66 1.05-1.106 1.594-2.64 1.631-4.603v-2.55c-1.437 2-3.531 3-6.281 3-2.35 0-4.238-.937-5.663-2.812-1.425-1.876-2.137-4.407-2.137-7.594v-.3zm2.269.394c0 2.587.518 4.628 1.556 6.121 1.037 1.494 2.5 2.241 4.387 2.241 2.763 0 4.72-1.237 5.87-3.712v-9.432c-.526-1.3-1.282-2.29-2.27-2.972-.987-.68-2.175-1.021-3.562-1.021-1.888 0-3.356.74-4.406 2.221-1.05 1.482-1.575 3.666-1.575 6.554zm25.89-.507c0-1.95.378-3.706 1.134-5.268.756-1.563 1.825-2.779 3.206-3.647 1.382-.87 2.947-1.303 4.697-1.303 2.7 0 4.888.946 6.563 2.84 1.675 1.894 2.512 4.403 2.512 7.528v.469c0 1.963-.378 3.728-1.134 5.297-.756 1.569-1.822 2.778-3.197 3.628-1.375.85-2.944 1.275-4.706 1.275-2.688 0-4.872-.947-6.553-2.84-1.682-1.894-2.522-4.404-2.522-7.529v-.45zm2.25.619c0 2.425.628 4.416 1.884 5.972 1.256 1.556 2.903 2.334 4.94 2.334 2.026 0 3.666-.778 4.923-2.334 1.256-1.556 1.884-3.61 1.884-6.16v-.43c0-1.55-.287-2.97-.862-4.257-.575-1.288-1.382-2.284-2.42-2.99-1.037-.707-2.224-1.06-3.562-1.06-2 0-3.63.784-4.893 2.353-1.263 1.569-1.894 3.622-1.894 6.16v.412zm32.473 7.256c-1.35 1.963-3.506 2.944-6.469 2.944-2.162 0-3.806-.628-4.93-1.884-1.126-1.257-1.7-3.116-1.726-5.578v-13.2h2.231v12.918c0 3.863 1.563 5.794 4.688 5.794 3.25 0 5.306-1.344 6.169-4.031v-14.681h2.25V167.8h-2.175l-.038-2.569zm10.46-22.912v5.194h4.2v1.837h-4.2v13.519c0 1.125.204 1.962.61 2.512s1.085.825 2.035.825c.375 0 .98-.062 1.818-.187l.094 1.837c-.587.213-1.387.319-2.4.319-1.537 0-2.656-.447-3.356-1.34-.7-.894-1.05-2.21-1.05-3.947V149.35h-3.731v-1.837h3.73v-5.194h2.25zm-577.017 68.837c0-1.95.378-3.706 1.134-5.268.756-1.563 1.825-2.779 3.206-3.647 1.382-.87 2.947-1.303 4.697-1.303 2.7 0 4.888.946 6.563 2.84 1.675 1.894 2.512 4.403 2.512 7.528v.469c0 1.963-.378 3.728-1.134 5.297-.756 1.569-1.822 2.778-3.197 3.628-1.375.85-2.944 1.275-4.706 1.275-2.688 0-4.872-.947-6.553-2.84-1.682-1.894-2.522-4.404-2.522-7.529v-.45zm2.25.619c0 2.425.628 4.416 1.884 5.972 1.256 1.556 2.903 2.334 4.94 2.334 2.026 0 3.666-.778 4.923-2.334 1.256-1.556 1.884-3.61 1.884-6.16v-.43c0-1.55-.287-2.97-.862-4.257-.575-1.288-1.382-2.284-2.42-2.99-1.037-.707-2.224-1.06-3.562-1.06-2 0-3.631.784-4.893 2.353-1.263 1.569-1.894 3.622-1.894 6.16v.412zm21.56-10.462l.075 3.468c.763-1.25 1.713-2.203 2.85-2.86 1.138-.655 2.394-.983 3.77-.983 2.174 0 3.793.612 4.855 1.837 1.063 1.225 1.6 3.062 1.613 5.513V221.6h-2.231v-13.331c-.013-1.813-.397-3.163-1.153-4.05-.757-.888-1.966-1.331-3.629-1.331-1.387 0-2.615.434-3.684 1.303-1.069.868-1.86 2.04-2.372 3.515V221.6h-2.231v-20.287h2.137zm25.742 20.662c-1.725 0-3.284-.425-4.678-1.275-1.393-.85-2.478-2.034-3.253-3.553-.775-1.519-1.162-3.222-1.162-5.11v-.806c0-1.95.378-3.706 1.134-5.268.756-1.563 1.81-2.791 3.16-3.685 1.35-.894 2.812-1.34 4.387-1.34 2.462 0 4.416.84 5.86 2.521 1.443 1.682 2.165 3.978 2.165 6.891v1.256h-14.475v.432c0 2.3.66 4.215 1.978 5.746 1.319 1.532 2.978 2.297 4.978 2.297 1.2 0 2.26-.218 3.178-.656.92-.438 1.753-1.137 2.503-2.1l1.407 1.069c-1.65 2.387-4.044 3.581-7.182 3.581zm-.412-19.125c-1.688 0-3.11.619-4.266 1.856-1.156 1.238-1.86 2.9-2.11 4.988h12.17v-.244c-.063-1.95-.62-3.537-1.67-4.762-1.05-1.226-2.424-1.838-4.124-1.838zm18.353 8.306c0-1.95.378-3.706 1.134-5.268.756-1.563 1.825-2.779 3.206-3.647 1.381-.87 2.947-1.303 4.697-1.303 2.7 0 4.888.946 6.563 2.84 1.675 1.894 2.512 4.403 2.512 7.528v.469c0 1.963-.378 3.728-1.134 5.297-.757 1.569-1.822 2.778-3.197 3.628-1.375.85-2.944 1.275-4.706 1.275-2.688 0-4.872-.947-6.554-2.84-1.68-1.894-2.521-4.404-2.521-7.529v-.45zm2.25.619c0 2.425.628 4.416 1.884 5.972 1.256 1.556 2.903 2.334 4.94 2.334 2.026 0 3.666-.778 4.922-2.334 1.257-1.556 1.885-3.61 1.885-6.16v-.43c0-1.55-.288-2.97-.863-4.257-.575-1.288-1.38-2.284-2.418-2.99-1.038-.707-2.225-1.06-3.563-1.06-2 0-3.631.784-4.894 2.353-1.262 1.569-1.893 3.622-1.893 6.16v.412zm21.035 9.825v-18.45h-3.356v-1.837h3.356v-2.457c0-2.075.528-3.668 1.585-4.781 1.056-1.113 2.528-1.669 4.415-1.669.85 0 1.644.106 2.382.319l-.17 1.875a8.75 8.75 0 0 0-2.043-.225c-1.237 0-2.2.384-2.887 1.153-.688.769-1.032 1.86-1.032 3.272v2.513h4.838v1.837h-4.838v18.45h-2.25zm17.06-10.444c0-1.95.377-3.706 1.134-5.268.756-1.563 1.825-2.779 3.206-3.647 1.381-.87 2.947-1.303 4.697-1.303 2.7 0 4.887.946 6.562 2.84 1.675 1.894 2.513 4.403 2.513 7.528v.469c0 1.963-.378 3.728-1.135 5.297-.756 1.569-1.822 2.778-3.197 3.628-1.375.85-2.943 1.275-4.706 1.275-2.687 0-4.872-.947-6.553-2.84-1.681-1.894-2.522-4.404-2.522-7.529v-.45zm2.25.619c0 2.425.627 4.416 1.884 5.972 1.256 1.556 2.903 2.334 4.94 2.334 2.025 0 3.666-.778 4.922-2.334 1.256-1.556 1.884-3.61 1.884-6.16v-.43c0-1.55-.287-2.97-.862-4.257-.575-1.288-1.381-2.284-2.419-2.99-1.037-.707-2.225-1.06-3.562-1.06-2 0-3.632.784-4.894 2.353-1.263 1.569-1.894 3.622-1.894 6.16v.412zm32.472 7.256c-1.35 1.963-3.506 2.944-6.468 2.944-2.163 0-3.807-.628-4.932-1.884-1.125-1.257-1.7-3.116-1.725-5.578v-13.2h2.232v12.918c0 3.863 1.562 5.794 4.687 5.794 3.25 0 5.306-1.344 6.169-4.031v-14.681h2.25V221.6h-2.175l-.038-2.569zm16.349-15.806a8.38 8.38 0 0 0-1.52-.131c-1.4 0-2.583.39-3.552 1.172-.969.78-1.66 1.915-2.072 3.403V221.6h-2.231v-20.287h2.193l.038 3.225c1.187-2.4 3.094-3.6 5.719-3.6.625 0 1.118.08 1.48.243l-.055 2.044zm20.115 0a8.38 8.38 0 0 0-1.519-.131c-1.4 0-2.584.39-3.553 1.172-.969.78-1.66 1.915-2.072 3.403V221.6h-2.231v-20.287h2.194l.037 3.225c1.188-2.4 3.094-3.6 5.719-3.6.625 0 1.119.08 1.481.243l-.056 2.044zm9.973 18.75c-1.725 0-3.284-.425-4.678-1.275-1.394-.85-2.478-2.034-3.253-3.553-.775-1.519-1.163-3.222-1.163-5.11v-.806c0-1.95.378-3.706 1.135-5.268.756-1.563 1.809-2.791 3.159-3.685 1.35-.894 2.812-1.34 4.387-1.34 2.463 0 4.416.84 5.86 2.521 1.444 1.682 2.165 3.978 2.165 6.891v1.256H653.53v.432c0 2.3.66 4.215 1.979 5.746 1.318 1.532 2.978 2.297 4.978 2.297 1.2 0 2.26-.218 3.178-.656.919-.438 1.753-1.137 2.503-2.1l1.406 1.069c-1.65 2.387-4.043 3.581-7.181 3.581zm-.413-19.125c-1.687 0-3.109.619-4.265 1.856-1.156 1.238-1.86 2.9-2.11 4.988h12.17v-.244c-.063-1.95-.62-3.537-1.67-4.762-1.05-1.226-2.425-1.838-4.125-1.838zm18.824 17.231c1.562 0 2.872-.44 3.928-1.322 1.056-.88 1.628-2.021 1.715-3.421h2.157a6.353 6.353 0 0 1-1.163 3.384c-.712 1.019-1.66 1.815-2.84 2.39a8.56 8.56 0 0 1-3.797.863c-2.663 0-4.772-.925-6.328-2.775-1.557-1.85-2.335-4.337-2.335-7.462v-.675c0-2 .35-3.77 1.05-5.307.7-1.537 1.703-2.725 3.01-3.562 1.306-.838 2.834-1.256 4.584-1.256 2.225 0 4.06.662 5.503 1.987 1.444 1.325 2.216 3.069 2.316 5.231h-2.157c-.1-1.587-.671-2.868-1.715-3.843-1.044-.976-2.36-1.463-3.947-1.463-2.025 0-3.597.731-4.716 2.194-1.118 1.462-1.678 3.512-1.678 6.15v.656c0 2.588.56 4.606 1.678 6.056 1.12 1.45 2.697 2.175 4.735 2.175zm9.973-8.925c0-1.95.378-3.706 1.134-5.268.757-1.563 1.825-2.779 3.207-3.647 1.38-.87 2.946-1.303 4.696-1.303 2.7 0 4.888.946 6.563 2.84 1.675 1.894 2.512 4.403 2.512 7.528v.469c0 1.963-.378 3.728-1.134 5.297-.756 1.569-1.822 2.778-3.197 3.628-1.375.85-2.944 1.275-4.706 1.275-2.688 0-4.872-.947-6.553-2.84-1.681-1.894-2.522-4.404-2.522-7.529v-.45zm2.25.619c0 2.425.628 4.416 1.884 5.972 1.257 1.556 2.903 2.334 4.94 2.334 2.026 0 3.667-.778 4.923-2.334 1.256-1.556 1.884-3.61 1.884-6.16v-.43c0-1.55-.287-2.97-.862-4.257-.575-1.288-1.382-2.284-2.42-2.99-1.037-.707-2.224-1.06-3.562-1.06-2 0-3.63.784-4.893 2.353-1.263 1.569-1.894 3.622-1.894 6.16v.412zm21.467-10.462l.075 3.3c.75-1.226 1.687-2.144 2.812-2.757 1.125-.612 2.375-.918 3.75-.918 3.2 0 5.232 1.312 6.094 3.937.725-1.263 1.694-2.234 2.906-2.916 1.213-.68 2.55-1.021 4.013-1.021 4.35 0 6.569 2.374 6.656 7.125V221.6h-2.25v-13.369c-.012-1.812-.403-3.156-1.172-4.031-.769-.875-2.022-1.312-3.76-1.312-1.612.025-2.974.546-4.087 1.565-1.112 1.019-1.73 2.26-1.856 3.722V221.6h-2.25v-13.537c-.012-1.738-.422-3.035-1.228-3.891-.806-.856-2.047-1.284-3.722-1.284-1.412 0-2.625.403-3.637 1.209-1.013.806-1.763 2.003-2.25 3.59V221.6h-2.25v-20.287h2.156zm32.96 0l.076 3.3c.75-1.226 1.687-2.144 2.812-2.757 1.125-.612 2.375-.918 3.75-.918 3.2 0 5.231 1.312 6.094 3.937.725-1.263 1.694-2.234 2.906-2.916 1.213-.68 2.55-1.021 4.013-1.021 4.35 0 6.568 2.374 6.656 7.125V221.6h-2.25v-13.369c-.013-1.812-.403-3.156-1.172-4.031-.769-.875-2.022-1.312-3.76-1.312-1.612.025-2.974.546-4.087 1.565-1.112 1.019-1.731 2.26-1.856 3.722V221.6h-2.25v-13.537c-.013-1.738-.422-3.035-1.228-3.891-.807-.856-2.047-1.284-3.722-1.284-1.413 0-2.625.403-3.638 1.209-1.012.806-1.762 2.003-2.25 3.59V221.6h-2.25v-20.287h2.157zm38.774 20.662c-1.725 0-3.285-.425-4.678-1.275-1.394-.85-2.478-2.034-3.253-3.553-.775-1.519-1.163-3.222-1.163-5.11v-.806c0-1.95.378-3.706 1.134-5.268.757-1.563 1.81-2.791 3.16-3.685 1.35-.894 2.812-1.34 4.387-1.34 2.463 0 4.416.84 5.86 2.521 1.443 1.682 2.165 3.978 2.165 6.891v1.256h-14.475v.432c0 2.3.66 4.215 1.978 5.746 1.32 1.532 2.979 2.297 4.979 2.297 1.2 0 2.259-.218 3.178-.656.918-.438 1.753-1.137 2.503-2.1l1.406 1.069c-1.65 2.387-4.044 3.581-7.181 3.581zm-.413-19.125c-1.687 0-3.11.619-4.265 1.856-1.157 1.238-1.86 2.9-2.11 4.988h12.169v-.244c-.062-1.95-.619-3.537-1.669-4.762-1.05-1.226-2.425-1.838-4.125-1.838zm13.461-1.537l.075 3.468c.762-1.25 1.712-2.203 2.85-2.86 1.137-.655 2.394-.983 3.769-.983 2.175 0 3.793.612 4.856 1.837 1.062 1.225 1.6 3.062 1.612 5.513V221.6h-2.23v-13.331c-.013-1.813-.398-3.163-1.154-4.05-.756-.888-1.966-1.331-3.628-1.331-1.388 0-2.616.434-3.684 1.303-1.07.868-1.86 2.04-2.372 3.515V221.6h-2.232v-20.287h2.138zm16.986 9.956c0-3.15.703-5.66 2.109-7.528 1.406-1.87 3.316-2.803 5.728-2.803 2.738 0 4.825 1.08 6.263 3.243V192.8h2.23v28.8h-2.1l-.093-2.7c-1.437 2.05-3.55 3.075-6.337 3.075-2.338 0-4.222-.94-5.653-2.822-1.432-1.881-2.147-4.422-2.147-7.622v-.262zm2.268.394c0 2.587.52 4.628 1.557 6.121 1.037 1.494 2.5 2.241 4.387 2.241 2.763 0 4.725-1.219 5.888-3.656v-9.525c-1.163-2.638-3.113-3.956-5.85-3.956-1.888 0-3.357.74-4.407 2.221-1.05 1.482-1.575 3.666-1.575 6.554zm26.755 10.312c-1.725 0-3.284-.425-4.678-1.275-1.394-.85-2.478-2.034-3.253-3.553-.775-1.519-1.163-3.222-1.163-5.11v-.806c0-1.95.378-3.706 1.135-5.268.756-1.563 1.809-2.791 3.159-3.685 1.35-.894 2.812-1.34 4.387-1.34 2.463 0 4.416.84 5.86 2.521 1.444 1.682 2.165 3.978 2.165 6.891v1.256h-14.475v.432c0 2.3.66 4.215 1.979 5.746 1.318 1.532 2.978 2.297 4.978 2.297 1.2 0 2.259-.218 3.178-.656.919-.438 1.753-1.137 2.503-2.1l1.406 1.069c-1.65 2.387-4.044 3.581-7.181 3.581zm-.413-19.125c-1.687 0-3.109.619-4.265 1.856-1.157 1.238-1.86 2.9-2.11 4.988h12.17v-.244c-.063-1.95-.62-3.537-1.67-4.762-1.05-1.226-2.425-1.838-4.125-1.838zm10.424 8.419c0-3.15.703-5.66 2.109-7.528 1.406-1.87 3.316-2.803 5.728-2.803 2.738 0 4.825 1.08 6.263 3.243V192.8h2.23v28.8h-2.1l-.093-2.7c-1.437 2.05-3.55 3.075-6.337 3.075-2.338 0-4.222-.94-5.654-2.822-1.43-1.881-2.146-4.422-2.146-7.622v-.262zm2.268.394c0 2.587.52 4.628 1.557 6.121 1.037 1.494 2.5 2.241 4.387 2.241 2.763 0 4.725-1.219 5.888-3.656v-9.525c-1.163-2.638-3.113-3.956-5.85-3.956-1.888 0-3.357.74-4.407 2.221-1.05 1.482-1.575 3.666-1.575 6.554zm39.315 4.78c0-1.112-.446-2.005-1.34-2.68-.894-.676-2.24-1.204-4.04-1.585-1.8-.381-3.198-.819-4.191-1.312-.994-.494-1.732-1.097-2.213-1.81-.481-.712-.722-1.575-.722-2.587 0-1.6.669-2.922 2.006-3.966 1.338-1.044 3.05-1.565 5.138-1.565 2.263 0 4.078.559 5.447 1.678 1.369 1.118 2.053 2.578 2.053 4.378h-2.25c0-1.188-.497-2.175-1.49-2.963-.994-.787-2.248-1.181-3.76-1.181-1.475 0-2.66.328-3.553.984-.894.657-1.34 1.51-1.34 2.56 0 1.012.371 1.797 1.115 2.353.744.556 2.1 1.065 4.069 1.528 1.968.463 3.443.956 4.425 1.481.98.525 1.709 1.156 2.184 1.894.475.738.712 1.631.712 2.681 0 1.713-.69 3.081-2.071 4.107-1.382 1.025-3.185 1.537-5.41 1.537-2.362 0-4.278-.572-5.747-1.716-1.468-1.143-2.203-2.59-2.203-4.34h2.25c.088 1.312.64 2.334 1.66 3.065 1.018.732 2.365 1.097 4.04 1.097 1.563 0 2.825-.343 3.788-1.031.962-.688 1.443-1.556 1.443-2.606zm9.711-20.324v5.194h4.2v1.837h-4.2v13.519c0 1.125.203 1.962.61 2.512.406.55 1.084.825 2.034.825.375 0 .981-.062 1.819-.187l.093 1.837c-.587.213-1.387.319-2.4.319-1.537 0-2.656-.447-3.356-1.34-.7-.894-1.05-2.21-1.05-3.947V203.15h-3.731v-1.837h3.731v-5.194h2.25zm14.21 22.256l5.926-17.062h2.419l-8.663 23.737-.45 1.05c-1.112 2.463-2.831 3.694-5.156 3.694a6.294 6.294 0 0 1-1.725-.263l-.019-1.856 1.163.113c1.1 0 1.99-.272 2.672-.816.68-.544 1.259-1.478 1.734-2.803l.994-2.738-7.65-20.118h2.456l6.3 17.062zm13.255 3.225h-2.25v-28.8h2.25v28.8zm12.88.375c-1.725 0-3.285-.425-4.678-1.275-1.394-.85-2.478-2.034-3.253-3.553-.775-1.519-1.163-3.222-1.163-5.11v-.806c0-1.95.378-3.706 1.134-5.268.757-1.563 1.81-2.791 3.16-3.685 1.35-.894 2.812-1.34 4.387-1.34 2.463 0 4.416.84 5.86 2.521 1.443 1.682 2.165 3.978 2.165 6.891v1.256h-14.475v.432c0 2.3.66 4.215 1.978 5.746 1.32 1.532 2.979 2.297 4.979 2.297 1.2 0 2.259-.218 3.178-.656.918-.438 1.753-1.137 2.503-2.1l1.406 1.069c-1.65 2.387-4.044 3.581-7.181 3.581zm-.413-19.125c-1.687 0-3.11.619-4.265 1.856-1.157 1.238-1.86 2.9-2.11 4.988h12.17v-.244c-.063-1.95-.62-3.537-1.67-4.762-1.05-1.226-2.425-1.838-4.125-1.838zm23.474 13.594c0-1.113-.447-2.006-1.341-2.681-.894-.676-2.24-1.204-4.04-1.585-1.8-.381-3.198-.819-4.191-1.312-.994-.494-1.732-1.097-2.213-1.81-.481-.712-.722-1.575-.722-2.587 0-1.6.669-2.922 2.007-3.966 1.337-1.044 3.05-1.565 5.137-1.565 2.263 0 4.078.559 5.447 1.678 1.369 1.118 2.053 2.578 2.053 4.378h-2.25c0-1.188-.497-2.175-1.49-2.963-.994-.787-2.247-1.181-3.76-1.181-1.475 0-2.66.328-3.553.984-.894.657-1.34 1.51-1.34 2.56 0 1.012.371 1.797 1.115 2.353.744.556 2.1 1.065 4.069 1.528 1.968.463 3.443.956 4.425 1.481.98.525 1.709 1.156 2.184 1.894.475.738.713 1.631.713 2.681 0 1.713-.691 3.081-2.072 4.107-1.382 1.025-3.185 1.537-5.41 1.537-2.362 0-4.278-.572-5.747-1.716-1.468-1.143-2.203-2.59-2.203-4.34h2.25c.088 1.312.64 2.334 1.66 3.065 1.018.732 2.365 1.097 4.04 1.097 1.563 0 2.825-.343 3.788-1.031.962-.688 1.444-1.556 1.444-2.606z" transform="translate(-388 -139)"/>
</svg>
