<svg xmlns="http://www.w3.org/2000/svg" width="77" height="77" viewBox="0 0 77 77">
    <g fill="none" fill-rule="nonzero">
        <path fill="#FFF" d="M66.285 42.117c.086-.952.13-1.817.13-2.682s-.044-1.73-.13-2.682c-.086-.908.3-1.773 1.074-2.249l4.598-3.114a28.751 28.751 0 0 0-1.547-4.585l-5.629.173c-.86 0-1.719-.432-2.148-1.168-.903-1.514-1.977-2.941-3.18-4.325-.601-.649-.773-1.6-.473-2.466l1.848-5.19c-1.289-1.038-2.621-2.033-4.039-2.855l-4.426 3.417c-.687.52-1.633.649-2.406.303-1.676-.735-3.395-1.254-5.156-1.644-.86-.173-1.547-.821-1.805-1.687l-1.59-5.276C40.546 6.043 39.73 6 38.914 6c-.816 0-1.633.043-2.492.087l-1.547 5.276c-.258.866-.945 1.514-1.805 1.687-1.761.39-3.48.952-5.156 1.687a2.406 2.406 0 0 1-2.406-.303l-4.469-3.373c-1.375.865-2.75 1.816-3.996 2.898l1.89 5.147c.301.865.13 1.817-.472 2.465a27.923 27.923 0 0 0-3.18 4.326c-.43.778-1.246 1.21-2.148 1.21l-5.63-.129c-.6 1.514-1.116 3.028-1.503 4.585l4.598 3.114c.73.52 1.16 1.384 1.074 2.293-.086.865-.129 1.73-.129 2.638 0 .908.043 1.774.129 2.639.086.908-.3 1.773-1.074 2.292L6 47.653a28.751 28.751 0 0 0 1.547 4.585l5.629-.173c.86 0 1.719.433 2.148 1.168a24.007 24.007 0 0 0 3.18 4.282c.601.649.816 1.644.516 2.466l-1.848 5.19a42.184 42.184 0 0 0 3.996 2.855l4.469-3.417c.687-.52 1.633-.649 2.406-.303 1.676.735 3.437 1.254 5.156 1.644.86.173 1.547.821 1.805 1.687l1.59 5.276c.86.044 1.718.087 2.492.087.816 0 1.633-.043 2.492-.087l1.547-5.276c.258-.866.945-1.514 1.805-1.687 1.718-.39 3.48-.952 5.156-1.687a2.406 2.406 0 0 1 2.406.303l4.469 3.373a29.483 29.483 0 0 0 3.996-2.898l-1.89-5.19c-.301-.865-.13-1.817.472-2.466 1.203-1.34 2.234-2.768 3.18-4.325.43-.779 1.246-1.211 2.148-1.211l5.63.13c.6-1.514 1.116-3.028 1.503-4.585l-4.598-3.114c-.773-.39-1.203-1.255-1.117-2.163z"/>
        <g fill="#B3B3B3">
            <path d="M38.543 76.699c-1.463 0-2.968-.086-4.56-.258a2.508 2.508 0 0 1-2.065-1.72l-1.677-5.464a42.281 42.281 0 0 1-3.313-1.032l-4.645 3.527c-.775.56-1.807.645-2.624.215a38.478 38.478 0 0 1-7.528-5.334c-.732-.645-.99-1.678-.646-2.624l1.936-5.377c-.731-.86-1.376-1.764-2.022-2.71l-5.893.172c-.946.043-1.85-.516-2.28-1.377-1.333-2.753-2.28-5.678-2.925-8.69-.215-.945.215-1.935 1.033-2.494l4.817-3.27c-.043-.559-.043-1.118-.043-1.677 0-.56 0-1.118.043-1.678l-4.817-3.226A2.487 2.487 0 0 1 .3 31.187a39.494 39.494 0 0 1 2.84-8.69 2.377 2.377 0 0 1 2.28-1.419l5.85.13c.602-.947 1.29-1.85 2.021-2.71l-1.979-5.378c-.344-.946-.086-1.979.646-2.624a37.893 37.893 0 0 1 7.485-5.377c.817-.473 1.85-.387 2.624.172l4.645 3.484c1.076-.43 2.194-.774 3.313-1.075l1.634-5.506c.258-.947 1.076-1.592 2.022-1.72C35.231.3 36.822.171 38.328.171c1.549 0 3.097.086 4.646.258.946.13 1.763.774 2.065 1.72l1.677 5.464c1.119.301 2.237.645 3.312 1.032l4.646-3.527c.775-.602 1.807-.645 2.624-.215a38.478 38.478 0 0 1 7.528 5.334c.732.645.99 1.678.646 2.624l-1.936 5.377c.731.86 1.42 1.764 2.022 2.71l5.85-.172c.99 0 1.85.516 2.28 1.377a37.475 37.475 0 0 1 2.882 8.689 2.487 2.487 0 0 1-1.033 2.495l-4.817 3.27c.043.558.043 1.118.043 1.677 0 .56 0 1.118-.043 1.678l4.817 3.226c.818.559 1.205 1.505 1.033 2.495-.602 2.968-1.549 5.936-2.84 8.69-.43.86-1.29 1.419-2.28 1.419l-5.892-.13c-.603.947-1.291 1.85-2.022 2.71l1.979 5.378a2.408 2.408 0 0 1-.646 2.624 37.893 37.893 0 0 1-7.485 5.377c-.817.473-1.85.387-2.624-.172l-4.645-3.484c-1.076.43-2.194.774-3.313 1.075l-1.634 5.506c-.259.946-1.076 1.592-2.022 1.72-1.635.216-3.14.302-4.646.302h.043zm-2.409-4.947c.86.043 1.72.086 2.495.086.817 0 1.635-.043 2.495-.086l1.549-5.248c.258-.86.946-1.506 1.806-1.678a28.896 28.896 0 0 0 5.162-1.677 2.422 2.422 0 0 1 2.41.3l4.473 3.356a29.51 29.51 0 0 0 4-2.882l-1.892-5.162c-.301-.86-.13-1.807.473-2.452 1.204-1.334 2.237-2.753 3.183-4.302.43-.774 1.248-1.204 2.151-1.204l5.635.129c.603-1.506 1.119-3.011 1.506-4.56l-4.603-3.097c-.731-.516-1.161-1.377-1.075-2.237.086-.946.129-1.807.129-2.667 0-.86-.043-1.72-.13-2.667-.085-.903.302-1.764 1.076-2.237l4.603-3.097a28.464 28.464 0 0 0-1.549-4.56l-5.635.172c-.86 0-1.72-.43-2.15-1.161-.904-1.506-1.98-2.925-3.184-4.302-.602-.645-.774-1.592-.473-2.452l1.85-5.162c-1.291-1.032-2.624-2.022-4.044-2.84l-4.43 3.4c-.689.515-1.635.644-2.41.3-1.677-.73-3.398-1.247-5.162-1.634-.86-.172-1.548-.818-1.806-1.678l-1.592-5.248c-.86-.043-1.678-.086-2.495-.086-.817 0-1.635.043-2.495.086l-1.549 5.248c-.258.86-.946 1.506-1.806 1.678a27.817 27.817 0 0 0-5.162 1.677 2.422 2.422 0 0 1-2.41-.3l-4.473-3.356c-1.377.86-2.753 1.807-4 2.882l1.892 5.12c.301.86.13 1.806-.473 2.451a27.78 27.78 0 0 0-3.183 4.302c-.43.774-1.248 1.204-2.151 1.204l-5.635-.129c-.602 1.506-1.119 3.011-1.506 4.56l4.603 3.097c.731.516 1.161 1.377 1.075 2.28-.086.86-.129 1.72-.129 2.624 0 .903.043 1.764.13 2.624a2.422 2.422 0 0 1-1.076 2.28l-4.603 3.097a28.464 28.464 0 0 0 1.549 4.56l5.635-.172c.86 0 1.72.43 2.15 1.161a23.887 23.887 0 0 0 3.184 4.259c.602.645.817 1.635.516 2.452l-1.85 5.162a42.229 42.229 0 0 0 4.001 2.839l4.474-3.398c.688-.516 1.634-.646 2.409-.301 1.677.73 3.441 1.247 5.162 1.634.86.172 1.548.818 1.806 1.678l1.55 5.334z"/>
            <path d="M38.543 57.6c-10.54 0-19.142-8.604-19.142-19.143 0-10.54 8.603-19.142 19.142-19.142 3.355 0 6.668.903 9.55 2.538a2.454 2.454 0 0 1 .903 3.312 2.454 2.454 0 0 1-3.312.903c-2.151-1.247-4.603-1.893-7.141-1.893-7.872 0-14.282 6.41-14.282 14.282s6.41 14.282 14.282 14.282 14.282-6.41 14.282-14.282c0-.645-.043-1.29-.13-1.893-.129-1.118-.43-2.194-.817-3.226-.473-1.247.13-2.667 1.377-3.14 1.247-.473 2.667.129 3.14 1.376a20.78 20.78 0 0 1 1.118 4.345c.13.86.172 1.72.172 2.538 0 10.582-8.56 19.142-19.142 19.142z"/>
        </g>
    </g>
</svg>
