<svg xmlns="http://www.w3.org/2000/svg" xmlns:xlink="http://www.w3.org/1999/xlink" width="148" height="37" viewBox="0 0 148 37">
    <defs>
        <path id="a" d="M0 7.992A7.992 7.992 0 0 1 7.992 0H26.12a7.992 7.992 0 0 1 7.993 7.992V26.12a7.992 7.992 0 0 1-7.993 7.993H7.992A7.992 7.992 0 0 1 0 26.119V7.992z"/>
    </defs>
    <g fill="none" fill-rule="evenodd">
        <path fill="#2C3E50" d="M42.71 14.528c0 2.96 1.968 4.927 5.826 5.825l3.819.917c2.102.496 2.874 1.146 2.874 2.368 0 1.547-1.524 2.521-3.974 2.521-2.507 0-4.07-1.05-4.359-2.941h-4.725c.308 3.877 3.722 6.455 8.892 6.455 5.284 0 8.95-2.616 8.95-6.493 0-3.075-1.621-4.66-5.864-5.634l-3.704-.84c-2.083-.478-3.066-1.28-3.066-2.445 0-1.528 1.465-2.54 3.703-2.54 2.295 0 3.819 1.107 3.973 2.864h4.475c-.096-3.781-3.491-6.379-8.352-6.379-5.072 0-8.467 2.54-8.467 6.322zM63.283 3.833v4.66h-2.874v3.686h2.874v11.65c0 4.03 1.774 5.634 6.249 5.634 1.022 0 2.006-.076 2.527-.19v-3.649a14.01 14.01 0 0 1-1.428.096c-1.736 0-2.546-.821-2.546-2.54V12.179h3.993V8.493h-3.993v-4.66h-4.802zm13.26 33.136c4.726 0 6.982-1.738 8.776-6.876l7.638-21.6h-5.072L82.849 25.26h-.096L77.7 8.493h-5.228l7.542 20.951-.27.974c-.598 1.967-1.736 2.75-3.78 2.75-.309 0-1.042-.019-1.312-.076v3.782c.29.057 1.6.095 1.89.095zm17.659-7.601h4.802V.528h-4.802v28.84zm7.917 0h4.803V8.493h-4.803v20.875zm2.392-23.53c1.505 0 2.7-1.146 2.7-2.617 0-1.49-1.195-2.616-2.7-2.616-1.485 0-2.7 1.127-2.7 2.616 0 1.471 1.215 2.617 2.7 2.617zm4.986 8.69c0 2.96 1.968 4.927 5.825 5.825l3.82.917c2.102.496 2.873 1.146 2.873 2.368 0 1.547-1.524 2.521-3.973 2.521-2.508 0-4.07-1.05-4.36-2.941h-4.725c.309 3.877 3.723 6.455 8.892 6.455 5.285 0 8.95-2.616 8.95-6.493 0-3.075-1.62-4.66-5.864-5.634l-3.703-.84c-2.083-.478-3.067-1.28-3.067-2.445 0-1.528 1.466-2.54 3.703-2.54 2.295 0 3.82 1.107 3.973 2.864h4.475c-.096-3.781-3.49-6.379-8.351-6.379-5.073 0-8.468 2.54-8.468 6.322zm19.375 14.84h4.803V17.469c0-3.113 1.832-5.195 4.88-5.195 2.912 0 4.397 1.777 4.397 4.718v12.376h4.803V16.037c0-4.756-2.739-7.793-7.387-7.793-3.221 0-5.42 1.337-6.655 3.878h-.096V.529h-4.745v28.839z"/>
        <g>
            <mask id="b" fill="#fff">
                <use xlink:href="#a"/>
            </mask>
            <use fill="#FFF" fill-opacity="0" xlink:href="#a"/>
            <path fill="#2ECC71" d="M15.99 0v20.787H0V0z" mask="url(#b)"/>
            <path fill="#E74C3C" d="M34.112 0v11.193h-15.99V0z" mask="url(#b)"/>
            <path fill="#F39C12" d="M15.99 22.919v11.193H0V22.919z" mask="url(#b)" opacity=".9"/>
            <path fill="#3498DB" d="M34.112 13.591v20.787h-15.99V13.591z" mask="url(#b)"/>
        </g>
    </g>
</svg>
