<?xml version="1.0" encoding="UTF-8"?>
<svg width="20px" height="20px" viewBox="0 0 20 20" version="1.1" xmlns="http://www.w3.org/2000/svg" xmlns:xlink="http://www.w3.org/1999/xlink">
    <!-- Generator: Sketch 49.1 (51147) - http://www.bohemiancoding.com/sketch -->
    <title>power/on</title>
    <desc>Created with Sketch.</desc>
    <defs></defs>
    <g id="power/on" stroke="none" stroke-width="1" fill="none" fill-rule="evenodd">
        <g id="on" fill-rule="nonzero">
            <circle id="b" fill="#3498DB" cx="10" cy="10" r="10"></circle>
            <path d="M14.2870989,15.2233024 C14.0924165,15.4276702 13.8015215,15.5091416 13.5290105,15.4356215 C13.2564996,15.3621014 13.0460547,15.1453747 12.9805797,14.8708197 C12.9151047,14.5962647 13.0050948,14.3078912 13.2150989,14.1193024 C14.5596325,12.8135753 14.9809596,10.8243731 14.2812593,9.08566278 C13.5815591,7.34695249 11.8998078,6.20408128 10.0256186,6.19364819 C8.15142947,6.1832151 6.45705872,7.30729237 5.7380446,9.03810507 C5.01903049,10.7689178 5.41818546,12.7626874 6.74809891,14.0833024 C7.02877395,14.3860487 7.02074724,14.8562787 6.72990312,15.1492692 C6.439059,15.4422598 5.96890075,15.4537438 5.66409891,15.1753024 C3.89051357,13.4143593 3.3580936,10.755646 4.31683291,8.44754184 C5.27557223,6.13943772 7.53503129,4.64041392 10.0342976,4.65432611 C12.5335639,4.66823829 14.7761948,6.19232301 15.7091794,8.51095743 C16.6421639,10.8295918 16.0801783,13.4822132 14.2870989,15.2233024 Z M9.23009891,10.8083024 C9.25098827,10.3988229 9.58908694,10.0775325 9.99909891,10.0775325 C10.4091109,10.0775325 10.7472096,10.3988229 10.7680989,10.8083024 L10.7680989,15.4233024 C10.7472096,15.8327819 10.4091109,16.1540723 9.99909891,16.1540723 C9.58908694,16.1540723 9.25098827,15.8327819 9.23009891,15.4233024 L9.23009891,10.8083024 Z" id="Shape" fill="#FFFFFF" transform="translate(10.000049, 10.404151) rotate(180.000000) translate(-10.000049, -10.404151) "></path>
        </g>
    </g>
</svg>