<svg xmlns="http://www.w3.org/2000/svg" width="288" height="28" viewBox="0 0 288 28">
    <defs>
        <linearGradient id="a" x1="50%" x2="50%" y1="0%" y2="100%">
            <stop offset="0%" stop-color="#888F96"/>
            <stop offset="100%" stop-color="#50565D"/>
        </linearGradient>
    </defs>
    <path fill="url(#a)" fill-rule="evenodd" d="M591.518 598.414c0 1.832-.317 3.44-.95 4.826-.634 1.386-1.539 2.452-2.714 3.2-1.176.747-2.534 1.12-4.075 1.12-2.324 0-4.202-.831-5.633-2.495-1.43-1.663-2.146-3.907-2.146-6.733v-2.05c0-1.815.321-3.421.964-4.82.642-1.4 1.552-2.475 2.727-3.227 1.176-.752 2.53-1.128 4.061-1.128 1.531 0 2.882.37 4.054 1.108 1.17.738 2.076 1.782 2.714 3.13.638 1.35.97 2.913.998 4.69v2.38zm-1.682-2.16c0-2.397-.542-4.275-1.627-5.633-1.085-1.358-2.57-2.037-4.457-2.037-1.85 0-3.325.681-4.423 2.044-1.098 1.363-1.647 3.265-1.647 5.708v2.078c0 2.36.547 4.232 1.64 5.612 1.094 1.381 2.58 2.072 4.457 2.072 1.905 0 3.39-.682 4.457-2.044 1.067-1.363 1.6-3.261 1.6-5.695v-2.105zm11.592-2.365a6.11 6.11 0 0 0-1.107-.096c-1.02 0-1.884.285-2.59.854-.707.57-1.21 1.397-1.512 2.482v10.158h-1.627v-14.793h1.6l.027 2.352c.866-1.75 2.256-2.625 4.17-2.625.456 0 .816.059 1.08.177l-.04 1.49zm-.22 17.117l-.97-.711c.829-1.112 1.257-2.265 1.285-3.46v-2.118h1.6v1.709c0 1.896-.639 3.422-1.915 4.58zm19.808-7.479c0-.81-.326-1.463-.977-1.955-.652-.492-1.634-.877-2.947-1.155-1.312-.278-2.33-.597-3.055-.957-.725-.36-1.263-.8-1.614-1.32-.35-.519-.526-1.148-.526-1.886 0-1.167.488-2.13 1.463-2.892.975-.76 2.224-1.141 3.746-1.141 1.65 0 2.974.408 3.972 1.223.998.816 1.497 1.88 1.497 3.193h-1.64c0-.866-.363-1.586-1.088-2.16-.724-.575-1.638-.862-2.74-.862-1.076 0-1.94.24-2.592.718-.651.479-.977 1.1-.977 1.866 0 .739.27 1.31.813 1.716.543.406 1.531.777 2.967 1.114 1.436.338 2.511.698 3.227 1.08.715.383 1.246.843 1.592 1.381.347.538.52 1.19.52 1.955 0 1.249-.504 2.247-1.51 2.994-1.008.748-2.323 1.122-3.945 1.122-1.723 0-3.12-.417-4.19-1.251-1.072-.834-1.607-1.89-1.607-3.165h1.64c.064.957.468 1.702 1.21 2.235.743.533 1.725.8 2.947.8 1.14 0 2.06-.251 2.762-.752.701-.502 1.052-1.135 1.052-1.9zm10.267 4.034c-1.258 0-2.395-.31-3.412-.93-1.016-.62-1.807-1.484-2.372-2.591-.565-1.107-.847-2.35-.847-3.726v-.587c0-1.422.275-2.703.827-3.842.551-1.14 1.32-2.035 2.304-2.687a5.683 5.683 0 0 1 3.199-.977c1.795 0 3.22.613 4.272 1.839 1.053 1.225 1.58 2.9 1.58 5.024V600h-10.555v.314c0 1.678.48 3.074 1.442 4.19.962 1.117 2.172 1.676 3.63 1.676.875 0 1.647-.16 2.317-.479.67-.319 1.279-.83 1.825-1.531l1.026.78c-1.203 1.74-2.949 2.61-5.236 2.61zm-.301-13.946c-1.23 0-2.268.451-3.11 1.354-.844.902-1.356 2.114-1.539 3.636h8.873v-.177c-.045-1.422-.45-2.58-1.216-3.473-.766-.893-1.769-1.34-3.008-1.34zm17.594 13.672c-.164-.465-.269-1.153-.314-2.064a5.705 5.705 0 0 1-2.195 1.73 6.72 6.72 0 0 1-2.823.608c-1.422 0-2.572-.397-3.452-1.19-.88-.793-1.32-1.795-1.32-3.008 0-1.44.6-2.58 1.798-3.418 1.199-.838 2.87-1.258 5.011-1.258h2.967v-1.681c0-1.057-.326-1.89-.978-2.495-.651-.606-1.601-.91-2.85-.91-1.14 0-2.083.292-2.83.876-.748.583-1.121 1.285-1.121 2.105l-1.64-.014c0-1.175.546-2.194 1.64-3.055 1.093-.862 2.438-1.292 4.033-1.292 1.65 0 2.95.412 3.903 1.237.953.825 1.443 1.976 1.47 3.452v7c0 1.431.15 2.502.451 3.213v.164h-1.75zm-5.14-1.176c1.093 0 2.07-.264 2.932-.793.861-.528 1.488-1.235 1.88-2.119v-3.254h-2.926c-1.631.019-2.907.317-3.828.896-.92.579-1.38 1.374-1.38 2.386 0 .829.307 1.517.922 2.064.615.547 1.415.82 2.4.82zm16.856-12.222a6.11 6.11 0 0 0-1.108-.096c-1.02 0-1.884.285-2.59.854-.707.57-1.21 1.397-1.511 2.482v10.158h-1.627v-14.793h1.6l.027 2.352c.866-1.75 2.255-2.625 4.17-2.625.455 0 .815.059 1.08.177l-.041 1.49zm7.012 12.29c1.14 0 2.094-.32 2.864-.963s1.187-1.474 1.251-2.495h1.572a4.632 4.632 0 0 1-.847 2.467 5.31 5.31 0 0 1-2.071 1.744 6.242 6.242 0 0 1-2.769.629c-1.941 0-3.48-.675-4.614-2.024-1.135-1.349-1.702-3.163-1.702-5.441v-.492c0-1.459.255-2.749.765-3.87.51-1.12 1.242-1.987 2.195-2.597.952-.611 2.066-.916 3.342-.916 1.623 0 2.96.483 4.013 1.449 1.053.966 1.616 2.238 1.688 3.814h-1.572c-.073-1.157-.49-2.091-1.25-2.802-.762-.711-1.721-1.067-2.879-1.067-1.476 0-2.622.533-3.438 1.6-.816 1.066-1.224 2.561-1.224 4.484v.479c0 1.886.408 3.358 1.224 4.416.816 1.057 1.966 1.586 3.452 1.586zm9.801-11.183c.538-.884 1.226-1.568 2.065-2.05a5.409 5.409 0 0 1 2.748-.725c1.586 0 2.766.446 3.54 1.34.776.893 1.168 2.233 1.177 4.02v9.706h-1.627v-9.72c-.01-1.322-.29-2.307-.841-2.954-.552-.647-1.433-.97-2.646-.97a4.138 4.138 0 0 0-2.686.95c-.78.633-1.356 1.488-1.73 2.563v10.131h-1.627v-21h1.627v8.71zm20.164 12.291v-13.453h-2.447v-1.34h2.447v-1.79c0-1.514.385-2.676 1.155-3.487.77-.811 1.843-1.217 3.22-1.217.62 0 1.198.077 1.736.232l-.123 1.368a6.38 6.38 0 0 0-1.49-.164c-.902 0-1.604.28-2.106.84-.5.56-.752 1.356-.752 2.386v1.832h3.528v1.34h-3.528v13.453h-1.64zm6.41-7.615c0-1.422.276-2.703.828-3.842.551-1.14 1.33-2.026 2.338-2.66 1.007-.633 2.148-.95 3.424-.95 1.97 0 3.564.691 4.786 2.072 1.221 1.38 1.832 3.21 1.832 5.49v.341c0 1.431-.276 2.718-.828 3.862-.55 1.144-1.328 2.026-2.33 2.646-1.003.62-2.147.93-3.432.93-1.96 0-3.553-.69-4.779-2.072-1.225-1.38-1.838-3.21-1.838-5.489v-.328zm1.641.451c0 1.768.458 3.22 1.374 4.355.916 1.134 2.117 1.702 3.603 1.702 1.476 0 2.673-.568 3.589-1.702.916-1.135 1.374-2.632 1.374-4.492v-.314c0-1.13-.21-2.165-.63-3.104-.418-.938-1.006-1.665-1.763-2.18-.756-.515-1.622-.773-2.598-.773-1.458 0-2.647.572-3.568 1.716-.92 1.144-1.38 2.641-1.38 4.491v.301zm20.999-6.234a6.11 6.11 0 0 0-1.108-.096c-1.02 0-1.884.285-2.59.854-.707.57-1.21 1.397-1.511 2.482v10.158h-1.627v-14.793h1.6l.027 2.352c.866-1.75 2.256-2.625 4.17-2.625.456 0 .816.059 1.08.177l-.041 1.49zm6.929 5.783c0-1.422.276-2.703.827-3.842.552-1.14 1.33-2.026 2.338-2.66 1.007-.633 2.149-.95 3.425-.95 1.969 0 3.564.691 4.785 2.072 1.221 1.38 1.832 3.21 1.832 5.49v.341c0 1.431-.276 2.718-.827 3.862-.552 1.144-1.329 2.026-2.331 2.646-1.003.62-2.147.93-3.432.93-1.96 0-3.552-.69-4.778-2.072-1.226-1.38-1.84-3.21-1.84-5.489v-.328zm1.64.451c0 1.768.459 3.22 1.375 4.355.916 1.134 2.116 1.702 3.602 1.702 1.477 0 2.673-.568 3.589-1.702.916-1.135 1.374-2.632 1.374-4.492v-.314c0-1.13-.21-2.165-.629-3.104-.42-.938-1.007-1.665-1.764-2.18-.756-.515-1.622-.773-2.597-.773-1.459 0-2.648.572-3.569 1.716-.92 1.144-1.38 2.641-1.38 4.491v.301zm16.706-11.416v3.787h3.063v1.34h-3.063v9.857c0 .82.148 1.431.445 1.832.296.401.79.602 1.483.602.273 0 .716-.046 1.326-.137l.069 1.34c-.429.155-1.012.233-1.75.233-1.122 0-1.937-.326-2.448-.978-.51-.652-.765-1.611-.765-2.878v-9.871h-2.721v-1.34h2.72v-3.787h1.641zm7.3 6.29c.538-.885 1.226-1.569 2.064-2.052a5.409 5.409 0 0 1 2.748-.724c1.586 0 2.767.446 3.541 1.34.775.893 1.167 2.233 1.176 4.02v9.706h-1.627v-9.72c-.009-1.322-.29-2.307-.84-2.954-.552-.647-1.434-.97-2.646-.97a4.138 4.138 0 0 0-2.687.95c-.779.633-1.356 1.488-1.73 2.563v10.131h-1.626v-21h1.627v8.71zm18.688 12.564c-1.258 0-2.395-.31-3.411-.93-1.017-.62-1.807-1.484-2.372-2.591-.565-1.107-.848-2.35-.848-3.726v-.587c0-1.422.276-2.703.827-3.842.552-1.14 1.32-2.035 2.304-2.687a5.683 5.683 0 0 1 3.2-.977c1.795 0 3.219.613 4.272 1.839 1.052 1.225 1.579 2.9 1.579 5.024V600h-10.555v.314c0 1.678.48 3.074 1.442 4.19.962 1.117 2.172 1.676 3.63 1.676.875 0 1.648-.16 2.318-.479.67-.319 1.278-.83 1.825-1.531l1.025.78c-1.203 1.74-2.948 2.61-5.236 2.61zm-.3-13.946c-1.231 0-2.268.451-3.111 1.354-.843.902-1.356 2.114-1.538 3.636h8.873v-.177c-.046-1.422-.451-2.58-1.217-3.473-.766-.893-1.768-1.34-3.008-1.34zm15.092.274a6.11 6.11 0 0 0-1.108-.096c-1.02 0-1.884.285-2.59.854-.707.57-1.21 1.397-1.511 2.482v10.158h-1.627v-14.793h1.6l.027 2.352c.865-1.75 2.255-2.625 4.17-2.625.455 0 .815.059 1.08.177l-.041 1.49zm16.69 9.638c0-.81-.326-1.463-.977-1.955-.652-.492-1.634-.877-2.947-1.155-1.312-.278-2.33-.597-3.055-.957-.725-.36-1.263-.8-1.613-1.32-.351-.519-.527-1.148-.527-1.886 0-1.167.488-2.13 1.463-2.892.975-.76 2.224-1.141 3.746-1.141 1.65 0 2.974.408 3.972 1.223.998.816 1.497 1.88 1.497 3.193h-1.64c0-.866-.363-1.586-1.088-2.16-.724-.575-1.638-.862-2.74-.862-1.076 0-1.94.24-2.592.718-.651.479-.977 1.1-.977 1.866 0 .739.27 1.31.813 1.716.543.406 1.532.777 2.967 1.114 1.436.338 2.511.698 3.227 1.08.715.383 1.246.843 1.592 1.381.347.538.52 1.19.52 1.955 0 1.249-.504 2.247-1.51 2.994-1.008.748-2.323 1.122-3.945 1.122-1.723 0-3.12-.417-4.19-1.251-1.072-.834-1.607-1.89-1.607-3.165h1.64c.064.957.468 1.702 1.21 2.235.743.533 1.725.8 2.947.8 1.14 0 2.06-.251 2.762-.752.701-.502 1.052-1.135 1.052-1.9zm7.081-14.82v3.787h3.063v1.34h-3.063v9.857c0 .82.148 1.431.444 1.832.297.401.791.602 1.484.602.273 0 .715-.046 1.326-.137l.068 1.34c-.428.155-1.011.233-1.75.233-1.12 0-1.937-.326-2.447-.978-.51-.652-.766-1.611-.766-2.878v-9.871h-2.72v-1.34h2.72v-3.787h1.641zm10.362 16.229l4.32-12.442h1.764l-6.316 17.309-.329.765c-.81 1.796-2.064 2.694-3.76 2.694a4.59 4.59 0 0 1-1.257-.192l-.014-1.353.848.082c.802 0 1.451-.198 1.948-.595.497-.396.918-1.078 1.265-2.044l.724-1.996-5.578-14.67h1.791l4.594 12.442zm9.665 2.351h-1.64v-21h1.64v21zm9.391.274c-1.258 0-2.395-.31-3.411-.93-1.016-.62-1.807-1.484-2.372-2.591-.565-1.107-.848-2.35-.848-3.726v-.587c0-1.422.276-2.703.827-3.842.552-1.14 1.32-2.035 2.304-2.687a5.683 5.683 0 0 1 3.2-.977c1.795 0 3.219.613 4.272 1.839 1.052 1.225 1.579 2.9 1.579 5.024V600h-10.555v.314c0 1.678.48 3.074 1.442 4.19.962 1.117 2.172 1.676 3.63 1.676.875 0 1.648-.16 2.318-.479.67-.319 1.278-.83 1.825-1.531l1.025.78c-1.203 1.74-2.948 2.61-5.236 2.61zm-.3-13.946c-1.231 0-2.268.451-3.111 1.354-.843.902-1.356 2.114-1.538 3.636h8.873v-.177c-.046-1.422-.451-2.58-1.217-3.473-.766-.893-1.768-1.34-3.008-1.34zm17.115 9.912c0-.81-.326-1.463-.977-1.955-.652-.492-1.634-.877-2.947-1.155-1.312-.278-2.33-.597-3.055-.957-.725-.36-1.263-.8-1.614-1.32-.35-.519-.526-1.148-.526-1.886 0-1.167.488-2.13 1.463-2.892.975-.76 2.224-1.141 3.746-1.141 1.65 0 2.974.408 3.972 1.223.998.816 1.497 1.88 1.497 3.193h-1.641c0-.866-.362-1.586-1.087-2.16-.724-.575-1.638-.862-2.741-.862-1.076 0-1.94.24-2.59.718-.653.479-.978 1.1-.978 1.866 0 .739.27 1.31.813 1.716.542.406 1.531.777 2.967 1.114 1.435.338 2.51.698 3.226 1.08.716.383 1.247.843 1.593 1.381.347.538.52 1.19.52 1.955 0 1.249-.504 2.247-1.511 2.994-1.007.748-2.322 1.122-3.944 1.122-1.723 0-3.12-.417-4.19-1.251-1.072-.834-1.607-1.89-1.607-3.165h1.64c.064.957.467 1.702 1.21 2.235.743.533 1.725.8 2.947.8 1.139 0 2.06-.251 2.761-.752.702-.502 1.053-1.135 1.053-1.9z" transform="translate(-576 -586)"/>
</svg>
