<?xml version="1.0" encoding="UTF-8"?>
<svg width="11px" height="11px" viewBox="0 0 11 11" version="1.1" xmlns="http://www.w3.org/2000/svg" xmlns:xlink="http://www.w3.org/1999/xlink">
    <!-- Generator: sketchtool 50.2 (55047) - http://www.bohemiancoding.com/sketch -->
    <title>A994F7FF-8860-4F60-B754-2DEB5C4E8593</title>
    <desc>Created with sketchtool.</desc>
    <defs></defs>
    <g id="Page-1" stroke="none" stroke-width="1" fill="none" fill-rule="evenodd">
        <g id="Stylish-/-Extension-/-002" transform="translate(-158.000000, -461.000000)" fill="#FFFFFF" fill-rule="nonzero">
            <path d="M163.490417,470.62427 C161.20809,470.62427 159.36573,468.78191 159.36573,466.499583 C159.36573,464.217256 161.20809,462.374896 163.490417,462.374896 C164.626997,462.374896 165.653586,462.851526 166.39603,463.59397 L164.407014,465.582986 L168.99,465.582986 L168.99,461 L167.376789,462.613211 C166.377698,461.623286 165.011968,461 163.490417,461 C160.45648,461 158,463.465646 158,466.499583 C158,469.53352 160.45648,471.999166 163.490417,471.999166 C166.212711,471.999166 168.46754,470.019316 168.89834,467.41618 L167.505113,467.41618 C167.083478,469.249374 165.451935,470.62427 163.490417,470.62427 Z" id="Shape"></path>
        </g>
    </g>
</svg>