<svg xmlns="http://www.w3.org/2000/svg" width="365" height="38" viewBox="0 0 365 38">
    <defs>
        <linearGradient id="a" x1="99.21%" x2="0%" y1="0%" y2="96.966%">
            <stop offset="0%" stop-color="#3090D0"/>
            <stop offset="100%" stop-color="#0E5C93"/>
        </linearGradient>
    </defs>
    <path fill="url(#a)" fill-rule="evenodd" d="M692.9 220.088c0-1.513-.531-2.71-1.594-3.591-1.062-.881-3.006-1.719-5.831-2.513-2.825-.793-4.887-1.659-6.188-2.596-1.85-1.326-2.774-3.063-2.774-5.213 0-2.088.859-3.784 2.578-5.09 1.718-1.307 3.915-1.96 6.59-1.96 1.813 0 3.435.35 4.866 1.05 1.431.7 2.54 1.675 3.328 2.925.788 1.25 1.181 2.644 1.181 4.181h-2.325c0-1.862-.637-3.36-1.912-4.49-1.275-1.132-2.988-1.697-5.138-1.697-2.087 0-3.75.465-4.987 1.397-1.238.93-1.856 2.146-1.856 3.647 0 1.387.556 2.518 1.668 3.393 1.113.875 2.894 1.647 5.344 2.316 2.45.669 4.306 1.362 5.569 2.081 1.262.719 2.212 1.578 2.85 2.578.637 1 .956 2.181.956 3.544 0 2.15-.86 3.875-2.578 5.175-1.719 1.3-3.984 1.95-6.797 1.95-1.925 0-3.69-.344-5.297-1.031-1.606-.688-2.825-1.65-3.656-2.888-.831-1.237-1.247-2.656-1.247-4.256h2.306c0 1.925.719 3.444 2.156 4.556 1.438 1.113 3.35 1.669 5.738 1.669 2.125 0 3.831-.469 5.119-1.406 1.287-.938 1.931-2.181 1.931-3.731zm9.186-18.77v5.195h4.2v1.837h-4.2v13.519c0 1.125.203 1.962.61 2.512.405.55 1.083.825 2.033.825.375 0 .982-.062 1.82-.187l.093 1.837c-.588.213-1.388.319-2.4.319-1.538 0-2.656-.447-3.356-1.34-.7-.894-1.05-2.21-1.05-3.947V208.35h-3.732v-1.837h3.732v-5.194h2.25zm14.21 22.257l5.925-17.062h2.42l-8.663 23.737-.45 1.05c-1.113 2.463-2.832 3.694-5.157 3.694a6.294 6.294 0 0 1-1.725-.263l-.018-1.856 1.162.113c1.1 0 1.99-.272 2.672-.816.681-.544 1.26-1.478 1.734-2.803l.994-2.738-7.65-20.118h2.456l6.3 17.062zm13.255 3.225h-2.25V198h2.25v28.8zm12.88.375c-1.726 0-3.285-.425-4.679-1.275-1.394-.85-2.478-2.034-3.253-3.553-.775-1.519-1.162-3.222-1.162-5.11v-.806c0-1.95.378-3.706 1.134-5.268.756-1.563 1.81-2.791 3.16-3.685 1.35-.894 2.812-1.34 4.387-1.34 2.462 0 4.415.84 5.86 2.521 1.443 1.682 2.165 3.978 2.165 6.891v1.256h-14.475v.432c0 2.3.66 4.215 1.978 5.746 1.319 1.532 2.978 2.297 4.978 2.297 1.2 0 2.26-.218 3.178-.656.919-.438 1.753-1.137 2.503-2.1l1.407 1.069c-1.65 2.387-4.044 3.581-7.182 3.581zm-.413-19.125c-1.688 0-3.11.619-4.266 1.856-1.156 1.238-1.86 2.9-2.11 4.988h12.17v-.244c-.063-1.95-.62-3.537-1.67-4.762-1.05-1.226-2.424-1.838-4.124-1.838zm23.077-6.731v5.194h4.2v1.837h-4.2v13.519c0 1.125.204 1.962.61 2.512s1.084.825 2.034.825c.375 0 .981-.062 1.819-.187l.094 1.837c-.588.213-1.388.319-2.4.319-1.538 0-2.657-.447-3.357-1.34-.7-.894-1.05-2.21-1.05-3.947V208.35h-3.73v-1.837h3.73v-5.194h2.25zm10.011 8.625c.738-1.213 1.681-2.15 2.831-2.813a7.418 7.418 0 0 1 3.77-.993c2.174 0 3.793.612 4.855 1.837 1.063 1.225 1.6 3.062 1.613 5.513V226.8h-2.231v-13.331c-.013-1.813-.397-3.163-1.153-4.05-.757-.888-1.966-1.331-3.629-1.331-1.387 0-2.615.434-3.684 1.303-1.069.868-1.86 2.04-2.372 3.515V226.8h-2.231V198h2.231v11.944zm25.63 17.231c-1.725 0-3.285-.425-4.678-1.275-1.394-.85-2.479-2.034-3.254-3.553-.775-1.519-1.162-3.222-1.162-5.11v-.806c0-1.95.378-3.706 1.134-5.268.757-1.563 1.81-2.791 3.16-3.685 1.35-.894 2.812-1.34 4.387-1.34 2.463 0 4.416.84 5.86 2.521 1.443 1.682 2.165 3.978 2.165 6.891v1.256h-14.475v.432c0 2.3.66 4.215 1.978 5.746 1.319 1.532 2.978 2.297 4.978 2.297 1.2 0 2.26-.218 3.179-.656.918-.438 1.753-1.137 2.503-2.1l1.406 1.069c-1.65 2.387-4.044 3.581-7.181 3.581zm-.413-19.125c-1.687 0-3.11.619-4.265 1.856-1.157 1.238-1.86 2.9-2.11 4.988h12.169v-.244c-.063-1.95-.619-3.537-1.669-4.762-1.05-1.226-2.425-1.838-4.125-1.838zm24.447 14.081l.337 1.744.45-1.837 4.875-15.525h1.913l4.818 15.393.525 2.138.432-1.969 4.162-15.562h2.325l-5.906 20.287h-1.913l-5.212-16.087-.244-1.107-.244 1.125-5.118 16.069h-1.913l-5.887-20.287h2.306l4.294 15.618zm30.879 5.044c-1.725 0-3.284-.425-4.678-1.275-1.394-.85-2.478-2.034-3.253-3.553-.775-1.519-1.163-3.222-1.163-5.11v-.806c0-1.95.378-3.706 1.135-5.268.756-1.563 1.809-2.791 3.159-3.685 1.35-.894 2.812-1.34 4.388-1.34 2.462 0 4.415.84 5.859 2.521 1.444 1.682 2.166 3.978 2.166 6.891v1.256h-14.475v.432c0 2.3.659 4.215 1.978 5.746 1.318 1.532 2.978 2.297 4.978 2.297 1.2 0 2.26-.218 3.178-.656.919-.438 1.753-1.137 2.503-2.1l1.406 1.069c-1.65 2.387-4.043 3.581-7.181 3.581zm-.412-19.125c-1.688 0-3.11.619-4.266 1.856-1.156 1.238-1.86 2.9-2.11 4.988h12.17v-.244c-.063-1.95-.62-3.537-1.67-4.762-1.05-1.226-2.424-1.838-4.124-1.838zm27.654 8.813c0 3.162-.7 5.671-2.1 7.528-1.4 1.856-3.281 2.784-5.644 2.784-2.825 0-4.962-1.05-6.412-3.15l-.094 2.775h-2.1V198h2.231v11.456c1.425-2.212 3.538-3.318 6.338-3.318 2.4 0 4.297.915 5.69 2.746 1.394 1.832 2.091 4.378 2.091 7.641v.338zm-2.25-.394c0-2.675-.519-4.74-1.556-6.197-1.038-1.456-2.5-2.184-4.388-2.184-1.437 0-2.656.353-3.656 1.059s-1.756 1.74-2.269 3.103v9.15c1.125 2.55 3.113 3.825 5.963 3.825 1.85 0 3.297-.731 4.34-2.194 1.044-1.462 1.566-3.65 1.566-6.562zm5.66 15.431l-1.33-.975c1.137-1.525 1.724-3.106 1.762-4.744v-2.906h2.194v2.344c0 2.6-.875 4.693-2.625 6.281zm19.647-8.4l8.681-16.987h2.494l-12.375 23.55c-.912 1.825-1.878 3.118-2.897 3.88-1.019.763-2.153 1.132-3.403 1.107-.475-.025-1.075-.125-1.8-.3l.225-1.837 1.125.13c2.1.088 3.756-1.15 4.969-3.712l1.425-2.831-3.919-19.987h2.344l3.131 16.987zm10.292-7.031c.225-1.963.825-3.76 1.8-5.39.975-1.632 2.19-2.873 3.647-3.723a8.83 8.83 0 0 1 4.734-1.218c1.675.025 3.103.484 4.285 1.378 1.18.893 2.043 2.112 2.587 3.656s.728 3.253.553 5.128l-.037.356c-.375 3.2-1.51 5.769-3.403 7.707-1.894 1.937-4.166 2.875-6.816 2.812-2.275-.037-4.094-.875-5.456-2.512-1.363-1.638-2.031-3.8-2.006-6.488l.056-1.069.056-.637zm2.175.637c-.162 1.488-.053 2.86.328 4.116.381 1.256.99 2.24 1.828 2.953.838.713 1.882 1.088 3.132 1.125a6.52 6.52 0 0 0 3.703-1.031c1.118-.713 2.04-1.719 2.765-3.019.725-1.3 1.194-2.737 1.407-4.312l.056-.62c.225-2.412-.147-4.384-1.116-5.915-.969-1.531-2.372-2.315-4.21-2.353-2-.062-3.727.71-5.184 2.316-1.456 1.606-2.346 3.74-2.671 6.403l-.038.337zm30.73 7.144c-1.613 2.025-3.838 3-6.676 2.925-1.912-.037-3.337-.728-4.275-2.072-.937-1.344-1.275-3.21-1.012-5.597l2.175-12.993h2.212l-2.156 13.05a9.793 9.793 0 0 0-.019 2.006c.088 1.15.432 2.037 1.032 2.662.6.625 1.425.957 2.475.994a7.388 7.388 0 0 0 4.162-1.04c1.275-.757 2.1-1.747 2.475-2.972l2.513-14.7h2.25l-3.525 20.287H948.6l.543-2.55zm18.504-15.844a8.402 8.402 0 0 0-1.481-.168c-1.425 0-2.732.434-3.92 1.303-1.187.868-1.98 1.971-2.38 3.309l-2.4 13.95h-2.213l3.525-20.287h2.194l-.675 3.225c.737-1.2 1.628-2.113 2.672-2.738a6.318 6.318 0 0 1 3.44-.9c.438 0 .95.088 1.538.263l-.3 2.043zm12.971 13.725v1.594l.732-1.744 7.406-15.468h1.912l2.007 15.506.112 1.912.769-1.931 6.712-15.487h2.382l-9.263 20.287h-1.912l-2.232-16.087-.018-1.125-.432 1.143-7.762 16.069h-1.913l-2.156-20.287 2.1-.02 1.556 15.638zm34.274 4.669a7.77 7.77 0 0 1-.057-1.425l.169-1.406a10.528 10.528 0 0 1-3.216 2.381c-1.206.575-2.509.85-3.909.825-1.712-.025-3.103-.566-4.172-1.622-1.069-1.056-1.547-2.384-1.434-3.984.1-1.338.56-2.497 1.378-3.478.819-.982 1.984-1.744 3.497-2.288 1.512-.544 3.206-.815 5.081-.815l4.144.018.337-2.325c.15-1.387-.15-2.5-.9-3.337-.75-.838-1.856-1.281-3.318-1.331-1.475-.025-2.76.34-3.854 1.096-1.093.757-1.778 1.753-2.053 2.991h-2.193c.25-1.775 1.162-3.222 2.737-4.34 1.575-1.12 3.438-1.666 5.588-1.641 2.087.05 3.696.681 4.828 1.894 1.13 1.212 1.59 2.787 1.378 4.725l-1.688 10.2-.15 1.63a7.723 7.723 0 0 0 .15 2.007l-.037.225h-2.306zm-6.638-1.594c1.375.05 2.69-.278 3.947-.984 1.256-.706 2.297-1.71 3.122-3.01l.769-4.48-3.582-.02c-2.275 0-4.13.404-5.568 1.21-1.438.806-2.232 1.96-2.382 3.46-.112 1.1.178 2.005.872 2.718.694.713 1.635 1.081 2.822 1.106zm19.592-1.706l8.681-16.987h2.494l-12.375 23.55c-.912 1.825-1.878 3.118-2.897 3.88-1.019.763-2.153 1.132-3.403 1.107-.475-.025-1.075-.125-1.8-.3l.225-1.837 1.125.13c2.1.088 3.756-1.15 4.969-3.712l1.425-2.831-3.919-19.987h2.344l3.131 16.987zm8.06 1.95c.038-.438.216-.81.535-1.116a1.654 1.654 0 0 1 1.134-.478c.45-.012.82.138 1.107.45.287.313.412.694.375 1.144a1.494 1.494 0 0 1-.516 1.078 1.737 1.737 0 0 1-1.134.44c-.438.013-.803-.124-1.097-.412-.294-.287-.428-.656-.403-1.106z" transform="translate(-675 -198)"/>
</svg>
