<svg xmlns="http://www.w3.org/2000/svg" xmlns:xlink="http://www.w3.org/1999/xlink" width="422" height="86" viewBox="0 0 422 86">
    <defs>
        <linearGradient id="b" x1="99.21%" x2="0%" y1="0%" y2="96.966%">
            <stop offset="0%" stop-color="#3090D0"/>
            <stop offset="100%" stop-color="#0E5C93"/>
        </linearGradient>
        <path id="a" d="M530.751 142.469h-9.356V167.8h-2.306v-25.331h-9.338V140.5h21v1.969zm5.042 8.475c.738-1.213 1.682-2.15 2.832-2.813a7.418 7.418 0 0 1 3.768-.994c2.175 0 3.794.613 4.857 1.838 1.062 1.225 1.6 3.062 1.612 5.512V167.8h-2.231v-13.331c-.013-1.813-.397-3.163-1.153-4.05-.756-.888-1.966-1.332-3.628-1.332-1.388 0-2.616.435-3.685 1.304-1.068.868-1.86 2.04-2.372 3.515V167.8h-2.23V139h2.23v11.944zm25.63 17.231c-1.725 0-3.284-.425-4.678-1.275-1.394-.85-2.478-2.034-3.253-3.553-.775-1.519-1.163-3.222-1.163-5.11v-.806c0-1.95.378-3.706 1.134-5.269.757-1.562 1.81-2.79 3.16-3.684 1.35-.894 2.812-1.34 4.387-1.34 2.463 0 4.416.84 5.86 2.521 1.444 1.682 2.165 3.978 2.165 6.891v1.256H554.56v.431c0 2.3.66 4.216 1.978 5.747 1.32 1.532 2.979 2.297 4.979 2.297 1.2 0 2.259-.218 3.178-.656.919-.438 1.753-1.137 2.503-2.1l1.406 1.069c-1.65 2.387-4.044 3.581-7.181 3.581zm-.413-19.125c-1.687 0-3.109.619-4.265 1.856-1.157 1.238-1.86 2.9-2.11 4.988h12.17v-.244c-.063-1.95-.62-3.537-1.67-4.763-1.05-1.225-2.425-1.837-4.125-1.837zm35.903 8.812c0 3.163-.7 5.672-2.1 7.529-1.4 1.856-3.275 2.784-5.625 2.784-2.775 0-4.9-.975-6.375-2.925v10.35h-2.231v-28.088h2.081l.113 2.87c1.462-2.163 3.58-3.245 6.356-3.245 2.425 0 4.328.92 5.71 2.757 1.38 1.837 2.071 4.387 2.071 7.65v.318zm-2.25-.393c0-2.588-.531-4.631-1.594-6.132-1.062-1.5-2.543-2.25-4.443-2.25-1.375 0-2.557.332-3.544.994-.988.663-1.744 1.625-2.269 2.888v9.731c.538 1.163 1.306 2.05 2.306 2.662 1 .613 2.182.92 3.544.92 1.888 0 3.36-.754 4.416-2.26 1.056-1.506 1.584-3.69 1.584-6.553zm4.91-.113c0-1.95.379-3.706 1.135-5.269.756-1.562 1.825-2.778 3.206-3.646 1.382-.87 2.947-1.304 4.697-1.304 2.7 0 4.888.947 6.563 2.841 1.675 1.894 2.512 4.403 2.512 7.528v.469c0 1.963-.378 3.728-1.134 5.297-.756 1.569-1.822 2.778-3.197 3.628-1.375.85-2.944 1.275-4.706 1.275-2.688 0-4.872-.947-6.553-2.84-1.682-1.894-2.522-4.404-2.522-7.529v-.45zm2.25.619c0 2.425.629 4.416 1.885 5.972s2.903 2.334 4.94 2.334c2.026 0 3.666-.778 4.923-2.334 1.256-1.556 1.884-3.61 1.884-6.16v-.43c0-1.55-.288-2.97-.863-4.257-.575-1.288-1.38-2.284-2.418-2.99-1.038-.707-2.225-1.06-3.563-1.06-2 0-3.631.784-4.894 2.353-1.262 1.569-1.893 3.622-1.893 6.16v.412zm24.28 5.156l.338 1.744.45-1.838 4.875-15.525h1.912l4.819 15.394.525 2.138.431-1.969 4.163-15.563h2.325l-5.907 20.288h-1.912l-5.213-16.088-.243-1.106-.244 1.125-5.119 16.069h-1.912l-5.888-20.288h2.306l4.294 15.62zm30.88 5.044c-1.725 0-3.285-.425-4.678-1.275-1.394-.85-2.479-2.034-3.254-3.553-.775-1.519-1.162-3.222-1.162-5.11v-.806c0-1.95.378-3.706 1.134-5.269.757-1.562 1.81-2.79 3.16-3.684 1.35-.894 2.812-1.34 4.387-1.34 2.463 0 4.416.84 5.86 2.521 1.443 1.682 2.165 3.978 2.165 6.891v1.256H650.12v.431c0 2.3.66 4.216 1.978 5.747 1.319 1.532 2.978 2.297 4.978 2.297 1.2 0 2.26-.218 3.179-.656.918-.438 1.753-1.137 2.503-2.1l1.406 1.069c-1.65 2.387-4.044 3.581-7.181 3.581zm-.413-19.125c-1.687 0-3.11.619-4.265 1.856-1.157 1.238-1.86 2.9-2.11 4.988h12.169v-.244c-.063-1.95-.619-3.537-1.669-4.763-1.05-1.225-2.425-1.837-4.125-1.837zm20.698.375a8.38 8.38 0 0 0-1.518-.131c-1.4 0-2.585.39-3.554 1.172-.968.78-1.659 1.915-2.071 3.403V167.8h-2.232v-20.288h2.194l.038 3.225c1.187-2.4 3.093-3.6 5.718-3.6.625 0 1.12.082 1.482.244l-.057 2.044zm14.228-7.106v5.193h4.2v1.838h-4.2v13.519c0 1.125.203 1.962.61 2.512.406.55 1.084.825 2.034.825.375 0 .981-.062 1.819-.187l.093 1.837c-.587.213-1.387.319-2.4.319-1.537 0-2.656-.447-3.356-1.34-.7-.894-1.05-2.21-1.05-3.948V149.35h-3.731v-1.838h3.731v-5.193h2.25zm6.167 15.037c0-1.95.378-3.706 1.134-5.269.757-1.562 1.825-2.778 3.207-3.646 1.38-.87 2.946-1.304 4.696-1.304 2.7 0 4.888.947 6.563 2.841 1.675 1.894 2.512 4.403 2.512 7.528v.469c0 1.963-.378 3.728-1.134 5.297-.756 1.569-1.822 2.778-3.197 3.628-1.375.85-2.944 1.275-4.706 1.275-2.688 0-4.872-.947-6.553-2.84-1.681-1.894-2.522-4.404-2.522-7.529v-.45zm2.25.619c0 2.425.628 4.416 1.884 5.972 1.257 1.556 2.903 2.334 4.941 2.334 2.025 0 3.666-.778 4.922-2.334 1.256-1.556 1.884-3.61 1.884-6.16v-.43c0-1.55-.287-2.97-.862-4.257-.575-1.288-1.382-2.284-2.419-2.99-1.038-.707-2.225-1.06-3.563-1.06-2 0-3.63.784-4.893 2.353-1.263 1.569-1.894 3.622-1.894 6.16v.412zm39.84 4.669c0-1.113-.447-2.006-1.34-2.682-.894-.675-2.241-1.203-4.041-1.584-1.8-.381-3.197-.819-4.19-1.312-.995-.494-1.732-1.097-2.213-1.81-.482-.712-.722-1.575-.722-2.587 0-1.6.669-2.922 2.006-3.966 1.338-1.044 3.05-1.566 5.138-1.566 2.262 0 4.078.56 5.447 1.679 1.368 1.118 2.053 2.578 2.053 4.378h-2.25c0-1.188-.497-2.175-1.491-2.963-.994-.787-2.247-1.181-3.76-1.181-1.474 0-2.659.328-3.553.984-.893.657-1.34 1.51-1.34 2.56 0 1.012.372 1.797 1.115 2.353.744.556 2.1 1.065 4.07 1.528 1.968.463 3.443.956 4.424 1.481.982.525 1.71 1.156 2.185 1.894.475.738.712 1.631.712 2.681 0 1.713-.69 3.081-2.072 4.106-1.381 1.026-3.184 1.538-5.41 1.538-2.362 0-4.277-.572-5.746-1.716-1.469-1.143-2.203-2.59-2.203-4.34h2.25c.087 1.312.64 2.334 1.66 3.065 1.018.732 2.365 1.097 4.04 1.097 1.562 0 2.825-.343 3.787-1.031.963-.688 1.444-1.556 1.444-2.606zm9.71-20.325v5.193h4.2v1.838h-4.2v13.519c0 1.125.204 1.962.61 2.512s1.085.825 2.035.825c.375 0 .98-.062 1.818-.187l.094 1.837c-.587.213-1.387.319-2.4.319-1.537 0-2.656-.447-3.356-1.34-.7-.894-1.05-2.21-1.05-3.948V149.35h-3.731v-1.838h3.73v-5.193h2.25zm14.212 22.256l5.925-17.063h2.418l-8.662 23.738-.45 1.05c-1.113 2.463-2.831 3.694-5.156 3.694a6.294 6.294 0 0 1-1.725-.263l-.02-1.856 1.163.112c1.1 0 1.99-.271 2.672-.815.681-.544 1.26-1.478 1.735-2.803l.993-2.738-7.65-20.119h2.457l6.3 17.063zm13.254 3.225h-2.25V139h2.25v28.8zm12.88.375c-1.726 0-3.285-.425-4.679-1.275-1.393-.85-2.478-2.034-3.253-3.553-.775-1.519-1.162-3.222-1.162-5.11v-.806c0-1.95.378-3.706 1.134-5.269.756-1.562 1.81-2.79 3.16-3.684 1.35-.894 2.812-1.34 4.387-1.34 2.462 0 4.416.84 5.86 2.521 1.443 1.682 2.165 3.978 2.165 6.891v1.256h-14.475v.431c0 2.3.66 4.216 1.978 5.747 1.319 1.532 2.978 2.297 4.978 2.297 1.2 0 2.26-.218 3.178-.656.92-.438 1.753-1.137 2.503-2.1l1.407 1.069c-1.65 2.387-4.044 3.581-7.182 3.581zm-.413-19.125c-1.688 0-3.11.619-4.266 1.856-1.156 1.238-1.86 2.9-2.11 4.988h12.17v-.244c-.063-1.95-.62-3.537-1.67-4.763-1.05-1.225-2.424-1.837-4.124-1.837zm23.078-6.731v5.193h4.2v1.838h-4.2v13.519c0 1.125.203 1.962.609 2.512.406.55 1.084.825 2.034.825.375 0 .982-.062 1.82-.187l.093 1.837c-.588.213-1.388.319-2.4.319-1.538 0-2.656-.447-3.356-1.34-.7-.894-1.05-2.21-1.05-3.948V149.35h-3.732v-1.838h3.732v-5.193h2.25zm10.01 8.625c.738-1.213 1.682-2.15 2.832-2.813a7.418 7.418 0 0 1 3.768-.994c2.175 0 3.794.613 4.857 1.838 1.062 1.225 1.6 3.062 1.612 5.512V167.8h-2.231v-13.331c-.013-1.813-.397-3.163-1.153-4.05-.757-.888-1.966-1.332-3.628-1.332-1.388 0-2.616.435-3.685 1.304-1.069.868-1.86 2.04-2.372 3.515V167.8h-2.23V139h2.23v11.944zm25.63 17.231c-1.725 0-3.285-.425-4.678-1.275-1.394-.85-2.478-2.034-3.253-3.553-.775-1.519-1.163-3.222-1.163-5.11v-.806c0-1.95.378-3.706 1.134-5.269.757-1.562 1.81-2.79 3.16-3.684 1.35-.894 2.812-1.34 4.387-1.34 2.463 0 4.416.84 5.86 2.521 1.443 1.682 2.165 3.978 2.165 6.891v1.256h-14.475v.431c0 2.3.66 4.216 1.978 5.747 1.32 1.532 2.979 2.297 4.979 2.297 1.2 0 2.259-.218 3.178-.656.918-.438 1.753-1.137 2.503-2.1l1.406 1.069c-1.65 2.387-4.044 3.581-7.181 3.581zm-.413-19.125c-1.687 0-3.11.619-4.265 1.856-1.157 1.238-1.86 2.9-2.11 4.988h12.169v-.244c-.062-1.95-.619-3.537-1.669-4.763-1.05-1.225-2.425-1.837-4.125-1.837zm24.447 14.081l.337 1.744.45-1.838 4.875-15.525h1.913l4.818 15.394.525 2.138.432-1.969 4.162-15.563h2.325L886.08 167.8h-1.913l-5.212-16.088-.244-1.106-.244 1.125-5.118 16.069h-1.913l-5.887-20.288h2.306l4.294 15.62zm30.88 5.044c-1.726 0-3.285-.425-4.679-1.275-1.394-.85-2.478-2.034-3.253-3.553-.775-1.519-1.163-3.222-1.163-5.11v-.806c0-1.95.378-3.706 1.135-5.269.756-1.562 1.81-2.79 3.16-3.684 1.35-.894 2.812-1.34 4.387-1.34 2.462 0 4.415.84 5.859 2.521 1.444 1.682 2.166 3.978 2.166 6.891v1.256h-14.475v.431c0 2.3.659 4.216 1.978 5.747 1.319 1.532 2.978 2.297 4.978 2.297 1.2 0 2.26-.218 3.178-.656.919-.438 1.753-1.137 2.503-2.1l1.406 1.069c-1.65 2.387-4.043 3.581-7.18 3.581zm-.413-19.125c-1.688 0-3.11.619-4.266 1.856-1.156 1.238-1.86 2.9-2.11 4.988h12.17v-.244c-.063-1.95-.62-3.537-1.67-4.763-1.05-1.225-2.424-1.837-4.124-1.837zm27.654 8.812c0 3.163-.7 5.672-2.1 7.529-1.4 1.856-3.281 2.784-5.644 2.784-2.825 0-4.962-1.05-6.412-3.15l-.094 2.775h-2.1V139h2.231v11.456c1.425-2.212 3.538-3.319 6.338-3.319 2.4 0 4.297.916 5.69 2.747 1.394 1.832 2.091 4.378 2.091 7.641v.337zm-2.25-.393c0-2.675-.519-4.74-1.556-6.197-1.038-1.456-2.5-2.185-4.388-2.185-1.437 0-2.656.354-3.656 1.06-1 .706-1.756 1.74-2.269 3.103v9.15c1.125 2.55 3.113 3.825 5.963 3.825 1.85 0 3.297-.731 4.34-2.194 1.044-1.462 1.566-3.65 1.566-6.562zM546.893 211.93v1.594l.73-1.744 7.407-15.469h1.913l2.006 15.507.112 1.912.769-1.931 6.713-15.488h2.38l-9.262 20.288h-1.912l-2.231-16.088-.02-1.125-.43 1.144-7.763 16.069h-1.912l-2.157-20.288 2.1-.018 1.557 15.637zm24.148 4.669h-2.25l3.543-20.288h2.232L571.04 216.6zm1.912-26.156c.063-.813.6-1.325 1.613-1.538.487.088.834.24 1.04.46.207.218.341.578.403 1.078-.125.475-.306.822-.543 1.04-.238.22-.594.378-1.069.478-1.013-.15-1.494-.656-1.444-1.518zm10.91.675l-.9 5.193h4.07l-.32 1.838h-4.068l-2.25 13.537-.037 1.163c0 1.363.625 2.062 1.875 2.1.387.012.993-.031 1.818-.131l-.093 1.837a7.223 7.223 0 0 1-2.25.281c-1.313-.025-2.27-.484-2.87-1.378-.6-.893-.818-2.19-.655-3.89l2.23-13.519h-3.637l.338-1.838h3.6l.919-5.193h2.23zm8.23 8.625c1.95-2.588 4.25-3.857 6.9-3.807 1.95.05 3.37.732 4.257 2.044.887 1.313 1.2 3.119.937 5.419l-2.212 13.2h-2.213l2.213-13.238c.075-.712.087-1.4.037-2.062-.212-2.225-1.425-3.369-3.637-3.431-1.313-.025-2.538.365-3.675 1.172-1.138.806-2.138 2.021-3 3.646l-2.4 13.913h-2.213l5.006-28.8h2.213l-2.213 11.944zm39.41 10.012c.287-2.35-.97-4.075-3.77-5.175l-3.58-1.294-1.163-.468c-3.55-1.513-5.194-3.744-4.931-6.694.112-1.45.625-2.725 1.537-3.825.913-1.1 2.116-1.947 3.61-2.54a12.007 12.007 0 0 1 4.753-.835c1.612.037 3.053.41 4.321 1.116 1.27.706 2.22 1.671 2.85 2.896.632 1.226.879 2.607.741 4.144h-2.306c.175-1.85-.26-3.331-1.303-4.444-1.044-1.112-2.516-1.693-4.416-1.743-1.975-.025-3.666.428-5.072 1.36-1.406.93-2.21 2.202-2.41 3.815-.162 1.287.216 2.384 1.135 3.29.919.907 2.516 1.697 4.79 2.372 2.9.925 4.916 2.031 6.048 3.319 1.13 1.288 1.622 2.837 1.472 4.65-.138 1.5-.663 2.803-1.575 3.91-.913 1.106-2.132 1.952-3.657 2.54-1.525.588-3.162.862-4.912.825-1.738-.013-3.303-.369-4.697-1.069-1.394-.7-2.438-1.66-3.131-2.878-.694-1.219-.972-2.628-.835-4.228h2.288c-.188 1.9.322 3.41 1.528 4.528 1.206 1.119 2.86 1.69 4.96 1.716 2.1.025 3.865-.45 5.296-1.425 1.431-.975 2.24-2.263 2.428-3.863zm12.354-18.637l-.9 5.193h4.068l-.318 1.838h-4.069l-2.25 13.537-.038 1.163c0 1.363.625 2.062 1.875 2.1.388.012.994-.031 1.82-.131l-.094 1.837a7.223 7.223 0 0 1-2.25.281c-1.313-.025-2.27-.484-2.87-1.378-.6-.893-.818-2.19-.655-3.89l2.23-13.519h-3.637l.338-1.838h3.6l.918-5.193h2.232zm10.01 22.181l8.682-16.988h2.493l-12.375 23.55c-.912 1.826-1.878 3.12-2.896 3.882-1.02.762-2.154 1.131-3.404 1.106-.475-.025-1.075-.125-1.8-.3l.225-1.838 1.125.132c2.1.087 3.757-1.15 4.97-3.713l1.424-2.831-3.919-19.988h2.344l3.131 16.988zm12.524 3.3h-2.25l5.006-28.8h2.25l-5.006 28.8zm7.46 0h-2.25l3.544-20.288h2.231l-3.525 20.288zm1.913-26.156c.062-.813.6-1.325 1.612-1.538.488.088.835.24 1.041.46.206.218.34.578.403 1.078-.125.475-.306.822-.544 1.04-.237.22-.593.378-1.068.478-1.013-.15-1.494-.656-1.444-1.518zm15.88 20.868c.2-1.725-.85-2.974-3.15-3.75l-3.226-.956c-2.962-1-4.362-2.668-4.2-5.006.088-1.688.866-3.06 2.335-4.116 1.468-1.056 3.215-1.572 5.24-1.547 1.988.025 3.6.585 4.838 1.679 1.237 1.093 1.812 2.553 1.725 4.378h-2.213c.075-1.213-.303-2.2-1.134-2.963-.831-.762-1.934-1.156-3.31-1.181-1.424 0-2.624.334-3.6 1.003-.974.669-1.524 1.553-1.65 2.653-.187 1.613.8 2.744 2.963 3.394l2.344.675 1.256.431c2.825 1.063 4.156 2.794 3.994 5.194-.1 1.625-.803 2.96-2.11 4.003-1.306 1.044-2.99 1.628-5.053 1.753l-.768.019c-1.363-.025-2.594-.29-3.694-.797-1.1-.506-1.944-1.215-2.531-2.128-.588-.913-.844-1.962-.77-3.15l2.232.019c0 1.275.431 2.281 1.294 3.018.862.738 2.05 1.12 3.562 1.144 1.5 0 2.775-.34 3.825-1.022 1.05-.68 1.65-1.596 1.8-2.747zm10.16-11.568c1.95-2.588 4.25-3.857 6.9-3.807 1.95.05 3.369.732 4.256 2.044.888 1.313 1.2 3.119.938 5.419l-2.213 13.2h-2.212l2.212-13.238c.075-.712.088-1.4.038-2.062-.213-2.225-1.425-3.369-3.638-3.431-1.312-.025-2.537.365-3.675 1.172-1.137.806-2.137 2.021-3 3.646l-2.4 13.913h-2.212l5.006-28.8h2.213l-2.213 11.944zm24.278 16.856l3.206-18.45h-3.263l.338-1.838h3.244l.393-2.756c.313-1.987 1.072-3.525 2.279-4.612 1.206-1.088 2.709-1.619 4.509-1.594.725.025 1.544.15 2.456.375l-.394 1.856a7.754 7.754 0 0 0-2.006-.281c-1.25 0-2.284.406-3.103 1.219-.819.812-1.334 1.943-1.547 3.393l-.356 2.4h4.706l-.337 1.838h-4.67l-3.205 18.45h-2.25zm10.442-10.331c.225-1.963.825-3.76 1.8-5.39.975-1.632 2.19-2.873 3.647-3.723a8.83 8.83 0 0 1 4.734-1.219c1.675.025 3.103.485 4.284 1.379 1.182.893 2.044 2.112 2.588 3.656s.728 3.253.553 5.128l-.038.356c-.375 3.2-1.509 5.769-3.403 7.706-1.893 1.938-4.165 2.875-6.815 2.813-2.275-.038-4.094-.875-5.457-2.513-1.362-1.637-2.03-3.8-2.006-6.487l.056-1.069.057-.637zm2.175.637c-.163 1.488-.053 2.86.328 4.116.381 1.256.99 2.24 1.828 2.953.837.713 1.881 1.087 3.131 1.125a6.52 6.52 0 0 0 3.703-1.031c1.119-.713 2.04-1.719 2.766-3.019.725-1.3 1.194-2.737 1.406-4.313l.056-.618c.225-2.413-.146-4.385-1.115-5.916-.969-1.531-2.372-2.316-4.21-2.353-2-.063-3.728.71-5.184 2.316-1.456 1.606-2.347 3.74-2.672 6.403l-.037.337zm29.66-8.7a8.402 8.402 0 0 0-1.48-.169c-1.426 0-2.732.435-3.92 1.304-1.187.868-1.98 1.971-2.38 3.309l-2.4 13.95h-2.213l3.525-20.288h2.193l-.675 3.225c.738-1.2 1.628-2.112 2.672-2.737a6.318 6.318 0 0 1 3.44-.9c.438 0 .95.087 1.538.262l-.3 2.044zm28.122 9.881c-.638 2.813-1.931 5.016-3.881 6.61-1.95 1.594-4.332 2.353-7.144 2.278-2.438-.05-4.378-.916-5.822-2.597s-2.222-3.947-2.335-6.797c-.037-.975.007-1.943.132-2.906l.506-3.3c.388-2.513 1.166-4.737 2.334-6.675 1.17-1.938 2.591-3.394 4.266-4.369 1.675-.975 3.519-1.444 5.531-1.406 2.6.05 4.631.875 6.094 2.475s2.181 3.756 2.156 6.469l-2.269-.019c0-2.188-.524-3.884-1.574-5.09-1.05-1.207-2.557-1.835-4.52-1.885-2.474-.063-4.584.86-6.327 2.766-1.744 1.906-2.878 4.54-3.404 7.903l-.562 3.75-.075 1.687c-.025 1.475.19 2.844.647 4.106.456 1.263 1.14 2.225 2.053 2.888.913.663 2.006 1.012 3.281 1.05 2.175.075 3.994-.472 5.457-1.64 1.462-1.17 2.537-2.929 3.225-5.279l2.23-.019zm7.61-8.343c1.95-2.588 4.25-3.857 6.9-3.807 1.95.05 3.37.732 4.257 2.044.887 1.313 1.2 3.119.937 5.419l-2.212 13.2h-2.213l2.213-13.238c.075-.712.087-1.4.037-2.062-.212-2.225-1.425-3.369-3.637-3.431-1.313-.025-2.538.365-3.675 1.172-1.138.806-2.138 2.021-3 3.646l-2.4 13.913h-2.213l5.006-28.8h2.213l-2.213 11.944zm26.942-1.538a8.402 8.402 0 0 0-1.48-.169c-1.426 0-2.732.435-3.92 1.304-1.187.868-1.98 1.971-2.38 3.309l-2.4 13.95h-2.213l3.525-20.288h2.193l-.675 3.225c.738-1.2 1.629-2.112 2.672-2.737a6.318 6.318 0 0 1 3.44-.9c.438 0 .95.087 1.538.262l-.3 2.044zm-.583 8.063c.225-1.963.825-3.76 1.8-5.39.975-1.632 2.191-2.873 3.647-3.723a8.83 8.83 0 0 1 4.735-1.219c1.675.025 3.103.485 4.284 1.379 1.181.893 2.044 2.112 2.587 3.656.544 1.544.729 3.253.554 5.128l-.038.356c-.375 3.2-1.51 5.769-3.403 7.706-1.894 1.938-4.166 2.875-6.816 2.813-2.275-.038-4.093-.875-5.456-2.513-1.362-1.637-2.031-3.8-2.006-6.487l.056-1.069.056-.637zm2.175.637c-.162 1.488-.053 2.86.328 4.116.382 1.256.991 2.24 1.829 2.953.837.713 1.88 1.087 3.13 1.125a6.52 6.52 0 0 0 3.704-1.031c1.119-.713 2.04-1.719 2.766-3.019.725-1.3 1.193-2.737 1.406-4.313l.056-.618c.225-2.413-.147-4.385-1.116-5.916-.968-1.531-2.371-2.316-4.209-2.353-2-.063-3.728.71-5.184 2.316-1.457 1.606-2.347 3.74-2.672 6.403l-.038.337zm22.836-10.594l-.637 3.3c1.825-2.5 4.118-3.725 6.88-3.675 1.426.025 2.61.382 3.554 1.07.944.687 1.528 1.643 1.753 2.868.925-1.263 2.003-2.24 3.234-2.934a7.773 7.773 0 0 1 4.022-1.004c1.925.038 3.353.672 4.285 1.904.93 1.23 1.315 2.934 1.153 5.109l-.038.431-2.23 13.219h-2.232l2.212-13.256c.075-.738.082-1.438.02-2.1-.25-2.213-1.513-3.338-3.788-3.375-1.525-.025-2.929.472-4.21 1.49-1.281 1.02-2.084 2.291-2.41 3.816l-2.324 13.425h-2.231l2.25-13.425c.362-3.45-.907-5.219-3.807-5.306-1.437-.025-2.775.425-4.012 1.35-1.238.925-2.069 2.075-2.494 3.45l-2.4 13.931h-2.231l3.525-20.288h2.156zm34.61 20.663c-1.624-.025-3.03-.478-4.218-1.36-1.187-.88-2.06-2.08-2.616-3.6-.556-1.518-.753-3.159-.59-4.921l.056-.638a13.55 13.55 0 0 1 1.669-5.353c.937-1.694 2.125-2.987 3.562-3.881 1.438-.894 2.975-1.322 4.613-1.285 1.512.025 2.79.438 3.834 1.238s1.803 1.912 2.278 3.337c.475 1.426.625 3 .45 4.725l-.15 1.37h-14.043l-.057.45c-.187 1.362-.087 2.665.3 3.909.388 1.243 1.022 2.23 1.903 2.962.882.731 1.941 1.11 3.179 1.134 1.2.038 2.28-.193 3.243-.693a10.36 10.36 0 0 0 2.663-2.007l1.312 1.07c-.912 1.174-1.997 2.065-3.253 2.671-1.256.606-2.634.897-4.134.872zm2.363-19.125c-1.625-.063-3.081.512-4.368 1.725-1.288 1.213-2.257 2.919-2.907 5.119l11.775.018.057-.28c.225-1.776-.088-3.304-.938-4.585-.85-1.281-2.056-1.947-3.619-1.997z"/>
    </defs>
    <g fill="none" fill-rule="evenodd" transform="translate(-509 -139)">
        <use fill="#50565D" xlink:href="#a"/>
        <use fill="url(#b)" xlink:href="#a"/>
    </g>
</svg>
