<svg xmlns="http://www.w3.org/2000/svg" width="20" height="20" viewBox="0 0 20 20">
    <g fill="#2E3E49" fill-rule="nonzero">
        <path d="M10 20C4.5 20 0 15.5 0 10c0-.6.4-1 1-1s1 .4 1 1c0 4.4 3.6 8 8 8s8-3.6 8-8-3.6-8-8-8C7.3 2 4.8 3.3 3.4 5.6c-.4.4-1 .5-1.4.2-.5-.3-.6-.9-.3-1.4C3.5 1.7 6.7 0 10 0c5.5 0 10 4.5 10 10s-4.5 10-10 10z"/>
        <path d="M10 11c-.6 0-1-.4-1-1V5c0-.6.4-1 1-1s1 .4 1 1v5c0 .6-.4 1-1 1z"/>
        <path d="M13 14c-.3 0-.5-.1-.7-.3l-3-3c-.4-.4-.4-1 0-1.4.4-.4 1-.4 1.4 0l3 3c.4.4.4 1 0 1.4-.2.2-.4.3-.7.3zM6 6H2c-.6 0-1-.4-1-1V1c0-.6.4-1 1-1s1 .4 1 1v3h3c.6 0 1 .4 1 1s-.4 1-1 1z"/>
    </g>
</svg>
